<svg xmlns="http://www.w3.org/2000/svg" xmlns:xlink="http://www.w3.org/1999/xlink" width="1080" zoomAndPan="magnify" viewBox="0 0 810 809.999993" height="1080" preserveAspectRatio="xMidYMid meet" version="1.0"><defs><g/><clipPath id="043cb317e3"><path d="M 83 81 L 727 81 L 727 690 L 83 690 Z M 83 81 " clip-rule="nonzero"/></clipPath></defs><g clip-path="url(#043cb317e3)"><path fill="#a48fc4" d="M 674.011719 81 L 135.988281 81 C 107.167969 81 83.148438 105.019531 83.148438 133.839844 L 83.148438 505.652344 C 83.148438 534.476562 107.167969 558.492188 135.988281 558.492188 L 471.292969 558.492188 L 471.292969 690.117188 L 535.664062 558.492188 L 674.011719 558.492188 C 702.832031 558.492188 726.851562 534.476562 726.851562 505.652344 L 726.851562 133.839844 C 726.851562 105.019531 702.832031 81 674.011719 81 Z M 674.011719 81 " fill-opacity="1" fill-rule="nonzero"/></g><g fill="#ffffff" fill-opacity="1"><g transform="translate(163.102394, 280.435993)"><g><path d="M 75.8125 -80.21875 L 75.8125 0 L 60.328125 0 L 60.328125 -34.234375 L 23.953125 -34.234375 L 23.953125 0 L 8.359375 0 L 8.359375 -80.21875 L 23.953125 -80.21875 L 23.953125 -47.796875 L 60.328125 -47.796875 L 60.328125 -80.21875 Z M 75.8125 -80.21875 "/></g></g></g><g fill="#ffffff" fill-opacity="1"><g transform="translate(247.272895, 280.435993)"><g><path d="M 6.328125 -22.140625 L 6.328125 -59.203125 L 21.46875 -59.203125 L 21.46875 -25.421875 C 21.46875 -20.898438 22.296875 -17.488281 23.953125 -15.1875 C 25.609375 -12.894531 28.054688 -11.75 31.296875 -11.75 C 33.253906 -11.75 35.191406 -12.144531 37.109375 -12.9375 C 39.035156 -13.726562 40.804688 -14.914062 42.421875 -16.5 C 44.046875 -18.082031 45.421875 -20.078125 46.546875 -22.484375 L 46.546875 -59.203125 L 61.6875 -59.203125 L 61.6875 -16.953125 C 61.6875 -15.367188 61.96875 -14.238281 62.53125 -13.5625 C 63.101562 -12.882812 64.03125 -12.46875 65.3125 -12.3125 L 65.3125 0 C 63.800781 0.226562 62.535156 0.394531 61.515625 0.5 C 60.503906 0.613281 59.582031 0.671875 58.75 0.671875 C 56.039062 0.671875 53.835938 0.0507812 52.140625 -1.1875 C 50.441406 -2.425781 49.441406 -4.140625 49.140625 -6.328125 L 48.8125 -11.078125 C 46.175781 -7.078125 42.785156 -4.039062 38.640625 -1.96875 C 34.492188 0.09375 29.9375 1.125 24.96875 1.125 C 18.863281 1.125 14.226562 -0.847656 11.0625 -4.796875 C 7.90625 -8.753906 6.328125 -14.535156 6.328125 -22.140625 Z M 6.328125 -22.140625 "/></g></g></g><g fill="#ffffff" fill-opacity="1"><g transform="translate(317.094864, 280.435993)"><g><path d="M 6.78125 -82.484375 L 21.921875 -82.484375 L 21.921875 -18.984375 C 21.921875 -16.265625 22.367188 -14.4375 23.265625 -13.5 C 24.171875 -12.5625 25.414062 -12.09375 27 -12.09375 C 28.207031 -12.09375 29.453125 -12.242188 30.734375 -12.546875 C 32.015625 -12.847656 33.144531 -13.222656 34.125 -13.671875 L 36.15625 -2.140625 C 34.125 -1.160156 31.75 -0.410156 29.03125 0.109375 C 26.320312 0.640625 23.875 0.90625 21.6875 0.90625 C 16.945312 0.90625 13.273438 -0.351562 10.671875 -2.875 C 8.078125 -5.40625 6.78125 -9.003906 6.78125 -13.671875 Z M 6.78125 -82.484375 "/></g></g></g><g fill="#ffffff" fill-opacity="1"><g transform="translate(352.909697, 280.435993)"><g><path d="M 42.375 1.125 C 37.78125 1.125 33.726562 0.09375 30.21875 -1.96875 C 26.71875 -4.039062 23.988281 -6.847656 22.03125 -10.390625 L 22.03125 24.0625 L 6.890625 24.0625 L 6.890625 -59.203125 L 20.109375 -59.203125 L 20.109375 -49.03125 C 22.367188 -52.5 25.226562 -55.226562 28.6875 -57.21875 C 32.15625 -59.21875 36.113281 -60.21875 40.5625 -60.21875 C 44.550781 -60.21875 48.222656 -59.425781 51.578125 -57.84375 C 54.929688 -56.257812 57.847656 -54.054688 60.328125 -51.234375 C 62.816406 -48.410156 64.757812 -45.171875 66.15625 -41.515625 C 67.550781 -37.867188 68.25 -33.9375 68.25 -29.71875 C 68.25 -23.988281 67.132812 -18.789062 64.90625 -14.125 C 62.6875 -9.457031 59.632812 -5.75 55.75 -3 C 51.875 -0.25 47.414062 1.125 42.375 1.125 Z M 37.28125 -11.75 C 39.613281 -11.75 41.722656 -12.238281 43.609375 -13.21875 C 45.492188 -14.195312 47.128906 -15.53125 48.515625 -17.21875 C 49.910156 -18.914062 50.96875 -20.835938 51.6875 -22.984375 C 52.40625 -25.140625 52.765625 -27.382812 52.765625 -29.71875 C 52.765625 -32.195312 52.367188 -34.488281 51.578125 -36.59375 C 50.785156 -38.707031 49.632812 -40.570312 48.125 -42.1875 C 46.625 -43.8125 44.875 -45.078125 42.875 -45.984375 C 40.882812 -46.890625 38.71875 -47.34375 36.375 -47.34375 C 34.945312 -47.34375 33.5 -47.097656 32.03125 -46.609375 C 30.5625 -46.117188 29.148438 -45.421875 27.796875 -44.515625 C 26.441406 -43.609375 25.253906 -42.550781 24.234375 -41.34375 C 23.210938 -40.144531 22.476562 -38.828125 22.03125 -37.390625 L 22.03125 -23.5 C 22.9375 -21.3125 24.160156 -19.3125 25.703125 -17.5 C 27.242188 -15.695312 29.03125 -14.285156 31.0625 -13.265625 C 33.101562 -12.253906 35.175781 -11.75 37.28125 -11.75 Z M 37.28125 -11.75 "/></g></g></g><g fill="#ffffff" fill-opacity="1"><g transform="translate(424.539363, 280.435993)"><g/></g></g><g fill="#ffffff" fill-opacity="1"><g transform="translate(451.654695, 280.435993)"><g><path d="M 22.828125 0 L 1.015625 -59.203125 L 16.71875 -59.203125 L 31.640625 -13.78125 L 46.65625 -59.203125 L 61.015625 -59.203125 L 39.3125 0 Z M 22.828125 0 "/></g></g></g><g fill="#ffffff" fill-opacity="1"><g transform="translate(513.793981, 280.435993)"><g><path d="M 2.828125 -17.515625 C 2.828125 -21.359375 3.898438 -24.726562 6.046875 -27.625 C 8.191406 -30.519531 11.1875 -32.757812 15.03125 -34.34375 C 18.875 -35.925781 23.28125 -36.71875 28.25 -36.71875 C 30.726562 -36.71875 33.25 -36.53125 35.8125 -36.15625 C 38.375 -35.78125 40.597656 -35.175781 42.484375 -34.34375 L 42.484375 -37.515625 C 42.484375 -41.273438 41.367188 -44.171875 39.140625 -46.203125 C 36.921875 -48.242188 33.628906 -49.265625 29.265625 -49.265625 C 26.023438 -49.265625 22.9375 -48.695312 20 -47.5625 C 17.0625 -46.4375 13.972656 -44.78125 10.734375 -42.59375 L 5.875 -52.53125 C 9.789062 -55.09375 13.800781 -57.015625 17.90625 -58.296875 C 22.007812 -59.578125 26.320312 -60.21875 30.84375 -60.21875 C 39.28125 -60.21875 45.851562 -58.109375 50.5625 -53.890625 C 55.269531 -49.671875 57.625 -43.644531 57.625 -35.8125 L 57.625 -16.953125 C 57.625 -15.367188 57.90625 -14.238281 58.46875 -13.5625 C 59.03125 -12.882812 59.953125 -12.46875 61.234375 -12.3125 L 61.234375 0 C 59.878906 0.226562 58.65625 0.414062 57.5625 0.5625 C 56.46875 0.71875 55.546875 0.796875 54.796875 0.796875 C 51.785156 0.796875 49.503906 0.117188 47.953125 -1.234375 C 46.410156 -2.597656 45.453125 -4.257812 45.078125 -6.21875 L 44.734375 -9.265625 C 42.179688 -5.953125 38.984375 -3.390625 35.140625 -1.578125 C 31.296875 0.222656 27.378906 1.125 23.390625 1.125 C 19.472656 1.125 15.953125 0.316406 12.828125 -1.296875 C 9.703125 -2.921875 7.253906 -5.144531 5.484375 -7.96875 C 3.710938 -10.789062 2.828125 -13.972656 2.828125 -17.515625 Z M 39.65625 -14.46875 C 40.488281 -15.363281 41.164062 -16.265625 41.6875 -17.171875 C 42.21875 -18.078125 42.484375 -18.90625 42.484375 -19.65625 L 42.484375 -25.640625 C 40.671875 -26.398438 38.707031 -26.984375 36.59375 -27.390625 C 34.488281 -27.804688 32.5 -28.015625 30.625 -28.015625 C 26.707031 -28.015625 23.484375 -27.164062 20.953125 -25.46875 C 18.429688 -23.78125 17.171875 -21.539062 17.171875 -18.75 C 17.171875 -17.25 17.582031 -15.816406 18.40625 -14.453125 C 19.238281 -13.097656 20.445312 -12.003906 22.03125 -11.171875 C 23.613281 -10.347656 25.5 -9.9375 27.6875 -9.9375 C 29.945312 -9.9375 32.164062 -10.367188 34.34375 -11.234375 C 36.53125 -12.109375 38.300781 -13.1875 39.65625 -14.46875 Z M 39.65625 -14.46875 "/></g></g></g><g fill="#ffffff" fill-opacity="1"><g transform="translate(578.644808, 280.435993)"><g><path d="M 61.921875 0 L 46.78125 0 L 46.78125 -33.21875 C 46.78125 -37.957031 45.945312 -41.421875 44.28125 -43.609375 C 42.625 -45.796875 40.328125 -46.890625 37.390625 -46.890625 C 35.359375 -46.890625 33.304688 -46.359375 31.234375 -45.296875 C 29.171875 -44.242188 27.304688 -42.796875 25.640625 -40.953125 C 23.984375 -39.109375 22.78125 -36.984375 22.03125 -34.578125 L 22.03125 0 L 6.890625 0 L 6.890625 -59.203125 L 20.5625 -59.203125 L 20.5625 -48.25 C 22.070312 -50.800781 23.992188 -52.960938 26.328125 -54.734375 C 28.660156 -56.503906 31.351562 -57.859375 34.40625 -58.796875 C 37.457031 -59.742188 40.675781 -60.21875 44.0625 -60.21875 C 47.75 -60.21875 50.78125 -59.554688 53.15625 -58.234375 C 55.53125 -56.921875 57.335938 -55.148438 58.578125 -52.921875 C 59.828125 -50.703125 60.695312 -48.195312 61.1875 -45.40625 C 61.675781 -42.625 61.921875 -39.804688 61.921875 -36.953125 Z M 61.921875 0 "/></g></g></g><g fill="#ffffff" fill-opacity="1"><g transform="translate(196.875829, 437.935985)"><g><path d="M 42.375 -3.046875 C 41.09375 -2.523438 39.546875 -1.921875 37.734375 -1.234375 C 35.929688 -0.554688 33.992188 -0.015625 31.921875 0.390625 C 29.847656 0.804688 27.753906 1.015625 25.640625 1.015625 C 22.859375 1.015625 20.300781 0.523438 17.96875 -0.453125 C 15.632812 -1.429688 13.769531 -2.992188 12.375 -5.140625 C 10.976562 -7.285156 10.28125 -10.09375 10.28125 -13.5625 L 10.28125 -47.5625 L 2.484375 -47.5625 L 2.484375 -59.203125 L 10.28125 -59.203125 L 10.28125 -78.40625 L 25.421875 -78.40625 L 25.421875 -59.203125 L 37.84375 -59.203125 L 37.84375 -47.5625 L 25.421875 -47.5625 L 25.421875 -18.640625 C 25.492188 -16.609375 26.054688 -15.140625 27.109375 -14.234375 C 28.171875 -13.328125 29.492188 -12.875 31.078125 -12.875 C 32.648438 -12.875 34.191406 -13.140625 35.703125 -13.671875 C 37.210938 -14.203125 38.414062 -14.65625 39.3125 -15.03125 Z M 42.375 -3.046875 "/></g></g></g><g fill="#ffffff" fill-opacity="1"><g transform="translate(240.260356, 437.935985)"><g><path d="M 42.140625 -46.09375 C 37.546875 -46.09375 33.441406 -45.207031 29.828125 -43.4375 C 26.210938 -41.664062 23.613281 -39.125 22.03125 -35.8125 L 22.03125 0 L 6.890625 0 L 6.890625 -59.203125 L 20.796875 -59.203125 L 20.796875 -46.546875 C 22.898438 -50.617188 25.570312 -53.820312 28.8125 -56.15625 C 32.050781 -58.488281 35.476562 -59.769531 39.09375 -60 C 39.914062 -60 40.550781 -60 41 -60 C 41.457031 -60 41.835938 -59.957031 42.140625 -59.875 Z M 42.140625 -46.09375 "/></g></g></g><g fill="#ffffff" fill-opacity="1"><g transform="translate(283.983823, 437.935985)"><g><path d="M 2.828125 -17.515625 C 2.828125 -21.359375 3.898438 -24.726562 6.046875 -27.625 C 8.191406 -30.519531 11.1875 -32.757812 15.03125 -34.34375 C 18.875 -35.925781 23.28125 -36.71875 28.25 -36.71875 C 30.726562 -36.71875 33.25 -36.53125 35.8125 -36.15625 C 38.375 -35.78125 40.597656 -35.175781 42.484375 -34.34375 L 42.484375 -37.515625 C 42.484375 -41.273438 41.367188 -44.171875 39.140625 -46.203125 C 36.921875 -48.242188 33.628906 -49.265625 29.265625 -49.265625 C 26.023438 -49.265625 22.9375 -48.695312 20 -47.5625 C 17.0625 -46.4375 13.972656 -44.78125 10.734375 -42.59375 L 5.875 -52.53125 C 9.789062 -55.09375 13.800781 -57.015625 17.90625 -58.296875 C 22.007812 -59.578125 26.320312 -60.21875 30.84375 -60.21875 C 39.28125 -60.21875 45.851562 -58.109375 50.5625 -53.890625 C 55.269531 -49.671875 57.625 -43.644531 57.625 -35.8125 L 57.625 -16.953125 C 57.625 -15.367188 57.90625 -14.238281 58.46875 -13.5625 C 59.03125 -12.882812 59.953125 -12.46875 61.234375 -12.3125 L 61.234375 0 C 59.878906 0.226562 58.65625 0.414062 57.5625 0.5625 C 56.46875 0.71875 55.546875 0.796875 54.796875 0.796875 C 51.785156 0.796875 49.503906 0.117188 47.953125 -1.234375 C 46.410156 -2.597656 45.453125 -4.257812 45.078125 -6.21875 L 44.734375 -9.265625 C 42.179688 -5.953125 38.984375 -3.390625 35.140625 -1.578125 C 31.296875 0.222656 27.378906 1.125 23.390625 1.125 C 19.472656 1.125 15.953125 0.316406 12.828125 -1.296875 C 9.703125 -2.921875 7.253906 -5.144531 5.484375 -7.96875 C 3.710938 -10.789062 2.828125 -13.972656 2.828125 -17.515625 Z M 39.65625 -14.46875 C 40.488281 -15.363281 41.164062 -16.265625 41.6875 -17.171875 C 42.21875 -18.078125 42.484375 -18.90625 42.484375 -19.65625 L 42.484375 -25.640625 C 40.671875 -26.398438 38.707031 -26.984375 36.59375 -27.390625 C 34.488281 -27.804688 32.5 -28.015625 30.625 -28.015625 C 26.707031 -28.015625 23.484375 -27.164062 20.953125 -25.46875 C 18.429688 -23.78125 17.171875 -21.539062 17.171875 -18.75 C 17.171875 -17.25 17.582031 -15.816406 18.40625 -14.453125 C 19.238281 -13.097656 20.445312 -12.003906 22.03125 -11.171875 C 23.613281 -10.347656 25.5 -9.9375 27.6875 -9.9375 C 29.945312 -9.9375 32.164062 -10.367188 34.34375 -11.234375 C 36.53125 -12.109375 38.300781 -13.1875 39.65625 -14.46875 Z M 39.65625 -14.46875 "/></g></g></g><g fill="#ffffff" fill-opacity="1"><g transform="translate(348.834649, 437.935985)"><g><path d="M 6.890625 0 L 6.890625 -59.203125 L 22.03125 -59.203125 L 22.03125 0 Z M 6.890625 -67.453125 L 6.890625 -82.484375 L 22.03125 -82.484375 L 22.03125 -67.453125 Z M 6.890625 -67.453125 "/></g></g></g><g fill="#ffffff" fill-opacity="1"><g transform="translate(377.644691, 437.935985)"><g><path d="M 61.921875 0 L 46.78125 0 L 46.78125 -33.21875 C 46.78125 -37.957031 45.945312 -41.421875 44.28125 -43.609375 C 42.625 -45.796875 40.328125 -46.890625 37.390625 -46.890625 C 35.359375 -46.890625 33.304688 -46.359375 31.234375 -45.296875 C 29.171875 -44.242188 27.304688 -42.796875 25.640625 -40.953125 C 23.984375 -39.109375 22.78125 -36.984375 22.03125 -34.578125 L 22.03125 0 L 6.890625 0 L 6.890625 -59.203125 L 20.5625 -59.203125 L 20.5625 -48.25 C 22.070312 -50.800781 23.992188 -52.960938 26.328125 -54.734375 C 28.660156 -56.503906 31.351562 -57.859375 34.40625 -58.796875 C 37.457031 -59.742188 40.675781 -60.21875 44.0625 -60.21875 C 47.75 -60.21875 50.78125 -59.554688 53.15625 -58.234375 C 55.53125 -56.921875 57.335938 -55.148438 58.578125 -52.921875 C 59.828125 -50.703125 60.695312 -48.195312 61.1875 -45.40625 C 61.675781 -42.625 61.921875 -39.804688 61.921875 -36.953125 Z M 61.921875 0 "/></g></g></g><g fill="#ffffff" fill-opacity="1"><g transform="translate(445.884926, 437.935985)"><g><path d="M 34.34375 1.125 C 29.601562 1.125 25.3125 0.316406 21.46875 -1.296875 C 17.625 -2.921875 14.34375 -5.144531 11.625 -7.96875 C 8.914062 -10.789062 6.828125 -14.023438 5.359375 -17.671875 C 3.890625 -21.328125 3.15625 -25.191406 3.15625 -29.265625 C 3.15625 -34.910156 4.414062 -40.066406 6.9375 -44.734375 C 9.46875 -49.410156 13.085938 -53.160156 17.796875 -55.984375 C 22.503906 -58.804688 28.054688 -60.21875 34.453125 -60.21875 C 40.929688 -60.21875 46.46875 -58.804688 51.0625 -55.984375 C 55.664062 -53.160156 59.191406 -49.429688 61.640625 -44.796875 C 64.085938 -40.160156 65.3125 -35.171875 65.3125 -29.828125 C 65.3125 -28.921875 65.269531 -27.992188 65.1875 -27.046875 C 65.113281 -26.109375 65.039062 -25.34375 64.96875 -24.75 L 19.203125 -24.75 C 19.503906 -21.726562 20.390625 -19.085938 21.859375 -16.828125 C 23.328125 -14.566406 25.207031 -12.851562 27.5 -11.6875 C 29.800781 -10.519531 32.269531 -9.9375 34.90625 -9.9375 C 37.925781 -9.9375 40.769531 -10.671875 43.4375 -12.140625 C 46.113281 -13.609375 47.941406 -15.550781 48.921875 -17.96875 L 61.921875 -14.34375 C 60.484375 -11.332031 58.425781 -8.660156 55.75 -6.328125 C 53.082031 -3.992188 49.941406 -2.164062 46.328125 -0.84375 C 42.710938 0.46875 38.71875 1.125 34.34375 1.125 Z M 18.875 -34.34375 L 49.828125 -34.34375 C 49.523438 -37.351562 48.675781 -39.96875 47.28125 -42.1875 C 45.882812 -44.414062 44.054688 -46.148438 41.796875 -47.390625 C 39.546875 -48.640625 37.023438 -49.265625 34.234375 -49.265625 C 31.523438 -49.265625 29.054688 -48.640625 26.828125 -47.390625 C 24.609375 -46.148438 22.800781 -44.414062 21.40625 -42.1875 C 20.019531 -39.96875 19.175781 -37.351562 18.875 -34.34375 Z M 18.875 -34.34375 "/></g></g></g><g fill="#ffffff" fill-opacity="1"><g transform="translate(513.560268, 437.935985)"><g><path d="M 42.140625 -46.09375 C 37.546875 -46.09375 33.441406 -45.207031 29.828125 -43.4375 C 26.210938 -41.664062 23.613281 -39.125 22.03125 -35.8125 L 22.03125 0 L 6.890625 0 L 6.890625 -59.203125 L 20.796875 -59.203125 L 20.796875 -46.546875 C 22.898438 -50.617188 25.570312 -53.820312 28.8125 -56.15625 C 32.050781 -58.488281 35.476562 -59.769531 39.09375 -60 C 39.914062 -60 40.550781 -60 41 -60 C 41.457031 -60 41.835938 -59.957031 42.140625 -59.875 Z M 42.140625 -46.09375 "/></g></g></g><g fill="#ffffff" fill-opacity="1"><g transform="translate(557.283724, 437.935985)"><g><path d="M 28.703125 1.125 C 23.648438 1.125 18.828125 0.296875 14.234375 -1.359375 C 9.640625 -3.015625 5.6875 -5.460938 2.375 -8.703125 L 7.796875 -18.53125 C 11.335938 -15.664062 14.820312 -13.554688 18.25 -12.203125 C 21.675781 -10.847656 24.972656 -10.171875 28.140625 -10.171875 C 31.078125 -10.171875 33.425781 -10.695312 35.1875 -11.75 C 36.957031 -12.800781 37.84375 -14.382812 37.84375 -16.5 C 37.84375 -17.925781 37.351562 -19.035156 36.375 -19.828125 C 35.394531 -20.617188 33.984375 -21.316406 32.140625 -21.921875 C 30.296875 -22.523438 28.054688 -23.203125 25.421875 -23.953125 C 21.054688 -25.378906 17.40625 -26.769531 14.46875 -28.125 C 11.53125 -29.488281 9.328125 -31.203125 7.859375 -33.265625 C 6.390625 -35.335938 5.65625 -37.992188 5.65625 -41.234375 C 5.65625 -45.148438 6.648438 -48.519531 8.640625 -51.34375 C 10.640625 -54.175781 13.425781 -56.378906 17 -57.953125 C 20.582031 -59.535156 24.785156 -60.328125 29.609375 -60.328125 C 33.816406 -60.328125 37.804688 -59.664062 41.578125 -58.34375 C 45.347656 -57.03125 48.773438 -54.90625 51.859375 -51.96875 L 45.765625 -42.375 C 42.742188 -44.707031 39.878906 -46.414062 37.171875 -47.5 C 34.460938 -48.59375 31.710938 -49.140625 28.921875 -49.140625 C 27.335938 -49.140625 25.847656 -48.953125 24.453125 -48.578125 C 23.066406 -48.203125 21.9375 -47.582031 21.0625 -46.71875 C 20.195312 -45.851562 19.765625 -44.628906 19.765625 -43.046875 C 19.765625 -41.617188 20.160156 -40.507812 20.953125 -39.71875 C 21.742188 -38.925781 22.945312 -38.226562 24.5625 -37.625 C 26.1875 -37.019531 28.164062 -36.34375 30.5 -35.59375 C 35.25 -34.238281 39.257812 -32.84375 42.53125 -31.40625 C 45.8125 -29.976562 48.28125 -28.226562 49.9375 -26.15625 C 51.59375 -24.082031 52.421875 -21.238281 52.421875 -17.625 C 52.421875 -11.75 50.273438 -7.15625 45.984375 -3.84375 C 41.691406 -0.53125 35.929688 1.125 28.703125 1.125 Z M 28.703125 1.125 "/></g></g></g></svg>