<svg xmlns="http://www.w3.org/2000/svg" xmlns:xlink="http://www.w3.org/1999/xlink" width="1024" zoomAndPan="magnify" viewBox="0 0 768 576" height="768" preserveAspectRatio="xMidYMid meet" version="1.0"><defs><filter x="0%" y="0%" width="100%" height="100%" id="908bac55d9"><feColorMatrix values="0 0 0 0 1 0 0 0 0 1 0 0 0 0 1 0 0 0 1 0" color-interpolation-filters="sRGB"/></filter><g/><mask id="6ce9c75183"><g filter="url(#908bac55d9)"><rect x="-76.8" width="921.6" fill="#000000" y="-57.6" height="691.2" fill-opacity="0.6"/></g></mask><clipPath id="23e4dd92e6"><path d="M 0.160156 0.0390625 L 724 0.0390625 L 724 1.960938 L 0.160156 1.960938 Z M 0.160156 0.0390625 " clip-rule="nonzero"/></clipPath><clipPath id="789279f88c"><rect x="0" width="724" y="0" height="2"/></clipPath><mask id="2e0415854a"><g filter="url(#908bac55d9)"><rect x="-76.8" width="921.6" fill="#000000" y="-57.6" height="691.2" fill-opacity="0.25"/></g></mask><clipPath id="1b83dc3975"><path d="M 0.160156 1 L 724 1 L 724 2.398438 L 0.160156 2.398438 Z M 0.160156 1 " clip-rule="nonzero"/></clipPath><clipPath id="a583a50ceb"><rect x="0" width="724" y="0" height="3"/></clipPath><mask id="0e06686db6"><g filter="url(#908bac55d9)"><rect x="-76.8" width="921.6" fill="#000000" y="-57.6" height="691.2" fill-opacity="0.25"/></g></mask><clipPath id="e8bd0889e1"><path d="M 0.160156 1 L 724 1 L 724 2 L 0.160156 2 Z M 0.160156 1 " clip-rule="nonzero"/></clipPath><clipPath id="6e57c0a020"><rect x="0" width="724" y="0" height="3"/></clipPath><mask id="0b05571194"><g filter="url(#908bac55d9)"><rect x="-76.8" width="921.6" fill="#000000" y="-57.6" height="691.2" fill-opacity="0.25"/></g></mask><clipPath id="9074a51f6c"><path d="M 0.160156 1 L 724 1 L 724 2 L 0.160156 2 Z M 0.160156 1 " clip-rule="nonzero"/></clipPath><clipPath id="beccfd9ba1"><rect x="0" width="724" y="0" height="2"/></clipPath><mask id="171c143923"><g filter="url(#908bac55d9)"><rect x="-76.8" width="921.6" fill="#000000" y="-57.6" height="691.2" fill-opacity="0.25"/></g></mask><clipPath id="6ed3b7025a"><path d="M 0.160156 1 L 724 1 L 724 2 L 0.160156 2 Z M 0.160156 1 " clip-rule="nonzero"/></clipPath><clipPath id="67e7a55490"><rect x="0" width="724" y="0" height="3"/></clipPath></defs><g fill="#3e2561" fill-opacity="1"><g transform="translate(21.00057, 557.699997)"><g><path d="M 6 0.171875 C 5.101562 0.171875 4.296875 -0.0390625 3.578125 -0.46875 C 2.867188 -0.90625 2.300781 -1.59375 1.875 -2.53125 C 1.457031 -3.46875 1.25 -4.65625 1.25 -6.09375 C 1.25 -7.539062 1.457031 -8.734375 1.875 -9.671875 C 2.300781 -10.609375 2.867188 -11.289062 3.578125 -11.71875 C 4.296875 -12.15625 5.101562 -12.375 6 -12.375 C 6.894531 -12.375 7.695312 -12.15625 8.40625 -11.71875 C 9.125 -11.289062 9.691406 -10.609375 10.109375 -9.671875 C 10.523438 -8.734375 10.734375 -7.539062 10.734375 -6.09375 C 10.734375 -4.65625 10.523438 -3.46875 10.109375 -2.53125 C 9.691406 -1.59375 9.125 -0.90625 8.40625 -0.46875 C 7.695312 -0.0390625 6.894531 0.171875 6 0.171875 Z M 6 -1.15625 C 7.0625 -1.15625 7.863281 -1.535156 8.40625 -2.296875 C 8.957031 -3.066406 9.234375 -4.332031 9.234375 -6.09375 C 9.234375 -7.863281 8.957031 -9.128906 8.40625 -9.890625 C 7.863281 -10.660156 7.0625 -11.046875 6 -11.046875 C 5.300781 -11.046875 4.710938 -10.882812 4.234375 -10.5625 C 3.753906 -10.238281 3.382812 -9.710938 3.125 -8.984375 C 2.875 -8.253906 2.75 -7.289062 2.75 -6.09375 C 2.75 -4.90625 2.875 -3.945312 3.125 -3.21875 C 3.382812 -2.488281 3.753906 -1.960938 4.234375 -1.640625 C 4.710938 -1.316406 5.300781 -1.15625 6 -1.15625 Z M 6 -1.15625 "/></g></g></g><g fill="#3e2561" fill-opacity="1"><g transform="translate(10.699791, 421.650002)"><g><path d="M 5.03125 0.171875 C 3.882812 0.171875 2.96875 -0.078125 2.28125 -0.578125 C 1.601562 -1.085938 1.160156 -1.804688 0.953125 -2.734375 L 2.015625 -3.21875 L 2.21875 -3.1875 C 2.351562 -2.71875 2.53125 -2.332031 2.75 -2.03125 C 2.976562 -1.726562 3.273438 -1.5 3.640625 -1.34375 C 4.015625 -1.195312 4.476562 -1.125 5.03125 -1.125 C 5.851562 -1.125 6.492188 -1.367188 6.953125 -1.859375 C 7.410156 -2.347656 7.640625 -3.0625 7.640625 -4 C 7.640625 -4.957031 7.410156 -5.6875 6.953125 -6.1875 C 6.503906 -6.6875 5.882812 -6.9375 5.09375 -6.9375 C 4.488281 -6.9375 3.992188 -6.8125 3.609375 -6.5625 C 3.234375 -6.320312 2.898438 -5.945312 2.609375 -5.4375 L 1.453125 -5.546875 L 1.6875 -12.203125 L 8.53125 -12.203125 L 8.53125 -10.984375 L 2.953125 -10.984375 L 2.796875 -6.9375 L 2.984375 -6.90625 C 3.265625 -7.320312 3.613281 -7.632812 4.03125 -7.84375 C 4.445312 -8.050781 4.945312 -8.15625 5.53125 -8.15625 C 6.257812 -8.15625 6.894531 -7.992188 7.4375 -7.671875 C 7.976562 -7.347656 8.394531 -6.875 8.6875 -6.25 C 8.988281 -5.625 9.140625 -4.875 9.140625 -4 C 9.140625 -3.132812 8.96875 -2.382812 8.625 -1.75 C 8.28125 -1.125 7.796875 -0.644531 7.171875 -0.3125 C 6.554688 0.0078125 5.84375 0.171875 5.03125 0.171875 Z M 5.03125 0.171875 "/></g></g></g><g fill="#3e2561" fill-opacity="1"><g transform="translate(20.801434, 421.650002)"><g><path d="M 6 0.171875 C 5.101562 0.171875 4.296875 -0.0390625 3.578125 -0.46875 C 2.867188 -0.90625 2.300781 -1.59375 1.875 -2.53125 C 1.457031 -3.46875 1.25 -4.65625 1.25 -6.09375 C 1.25 -7.539062 1.457031 -8.734375 1.875 -9.671875 C 2.300781 -10.609375 2.867188 -11.289062 3.578125 -11.71875 C 4.296875 -12.15625 5.101562 -12.375 6 -12.375 C 6.894531 -12.375 7.695312 -12.15625 8.40625 -11.71875 C 9.125 -11.289062 9.691406 -10.609375 10.109375 -9.671875 C 10.523438 -8.734375 10.734375 -7.539062 10.734375 -6.09375 C 10.734375 -4.65625 10.523438 -3.46875 10.109375 -2.53125 C 9.691406 -1.59375 9.125 -0.90625 8.40625 -0.46875 C 7.695312 -0.0390625 6.894531 0.171875 6 0.171875 Z M 6 -1.15625 C 7.0625 -1.15625 7.863281 -1.535156 8.40625 -2.296875 C 8.957031 -3.066406 9.234375 -4.332031 9.234375 -6.09375 C 9.234375 -7.863281 8.957031 -9.128906 8.40625 -9.890625 C 7.863281 -10.660156 7.0625 -11.046875 6 -11.046875 C 5.300781 -11.046875 4.710938 -10.882812 4.234375 -10.5625 C 3.753906 -10.238281 3.382812 -9.710938 3.125 -8.984375 C 2.875 -8.253906 2.75 -7.289062 2.75 -6.09375 C 2.75 -4.90625 2.875 -3.945312 3.125 -3.21875 C 3.382812 -2.488281 3.753906 -1.960938 4.234375 -1.640625 C 4.710938 -1.316406 5.300781 -1.15625 6 -1.15625 Z M 6 -1.15625 "/></g></g></g><g fill="#3e2561" fill-opacity="1"><g transform="translate(0.10604, 285.600008)"><g><path d="M 0.875 0 L 0.875 -1.1875 L 4.203125 -1.1875 L 4.203125 -10.515625 L 4 -10.5625 C 3.46875 -10.300781 3 -10.097656 2.59375 -9.953125 C 2.1875 -9.804688 1.664062 -9.671875 1.03125 -9.546875 L 1.03125 -10.859375 C 1.65625 -10.992188 2.273438 -11.175781 2.890625 -11.40625 C 3.503906 -11.632812 4.0625 -11.898438 4.5625 -12.203125 L 5.59375 -12.203125 L 5.59375 -1.1875 L 8.578125 -1.1875 L 8.578125 0 Z M 0.875 0 "/></g></g></g><g fill="#3e2561" fill-opacity="1"><g transform="translate(8.888579, 285.600008)"><g><path d="M 6 0.171875 C 5.101562 0.171875 4.296875 -0.0390625 3.578125 -0.46875 C 2.867188 -0.90625 2.300781 -1.59375 1.875 -2.53125 C 1.457031 -3.46875 1.25 -4.65625 1.25 -6.09375 C 1.25 -7.539062 1.457031 -8.734375 1.875 -9.671875 C 2.300781 -10.609375 2.867188 -11.289062 3.578125 -11.71875 C 4.296875 -12.15625 5.101562 -12.375 6 -12.375 C 6.894531 -12.375 7.695312 -12.15625 8.40625 -11.71875 C 9.125 -11.289062 9.691406 -10.609375 10.109375 -9.671875 C 10.523438 -8.734375 10.734375 -7.539062 10.734375 -6.09375 C 10.734375 -4.65625 10.523438 -3.46875 10.109375 -2.53125 C 9.691406 -1.59375 9.125 -0.90625 8.40625 -0.46875 C 7.695312 -0.0390625 6.894531 0.171875 6 0.171875 Z M 6 -1.15625 C 7.0625 -1.15625 7.863281 -1.535156 8.40625 -2.296875 C 8.957031 -3.066406 9.234375 -4.332031 9.234375 -6.09375 C 9.234375 -7.863281 8.957031 -9.128906 8.40625 -9.890625 C 7.863281 -10.660156 7.0625 -11.046875 6 -11.046875 C 5.300781 -11.046875 4.710938 -10.882812 4.234375 -10.5625 C 3.753906 -10.238281 3.382812 -9.710938 3.125 -8.984375 C 2.875 -8.253906 2.75 -7.289062 2.75 -6.09375 C 2.75 -4.90625 2.875 -3.945312 3.125 -3.21875 C 3.382812 -2.488281 3.753906 -1.960938 4.234375 -1.640625 C 4.710938 -1.316406 5.300781 -1.15625 6 -1.15625 Z M 6 -1.15625 "/></g></g></g><g fill="#3e2561" fill-opacity="1"><g transform="translate(20.893671, 285.600008)"><g><path d="M 6 0.171875 C 5.101562 0.171875 4.296875 -0.0390625 3.578125 -0.46875 C 2.867188 -0.90625 2.300781 -1.59375 1.875 -2.53125 C 1.457031 -3.46875 1.25 -4.65625 1.25 -6.09375 C 1.25 -7.539062 1.457031 -8.734375 1.875 -9.671875 C 2.300781 -10.609375 2.867188 -11.289062 3.578125 -11.71875 C 4.296875 -12.15625 5.101562 -12.375 6 -12.375 C 6.894531 -12.375 7.695312 -12.15625 8.40625 -11.71875 C 9.125 -11.289062 9.691406 -10.609375 10.109375 -9.671875 C 10.523438 -8.734375 10.734375 -7.539062 10.734375 -6.09375 C 10.734375 -4.65625 10.523438 -3.46875 10.109375 -2.53125 C 9.691406 -1.59375 9.125 -0.90625 8.40625 -0.46875 C 7.695312 -0.0390625 6.894531 0.171875 6 0.171875 Z M 6 -1.15625 C 7.0625 -1.15625 7.863281 -1.535156 8.40625 -2.296875 C 8.957031 -3.066406 9.234375 -4.332031 9.234375 -6.09375 C 9.234375 -7.863281 8.957031 -9.128906 8.40625 -9.890625 C 7.863281 -10.660156 7.0625 -11.046875 6 -11.046875 C 5.300781 -11.046875 4.710938 -10.882812 4.234375 -10.5625 C 3.753906 -10.238281 3.382812 -9.710938 3.125 -8.984375 C 2.875 -8.253906 2.75 -7.289062 2.75 -6.09375 C 2.75 -4.90625 2.875 -3.945312 3.125 -3.21875 C 3.382812 -2.488281 3.753906 -1.960938 4.234375 -1.640625 C 4.710938 -1.316406 5.300781 -1.15625 6 -1.15625 Z M 6 -1.15625 "/></g></g></g><g fill="#3e2561" fill-opacity="1"><g transform="translate(1.652915, 149.550014)"><g><path d="M 0.875 0 L 0.875 -1.1875 L 4.203125 -1.1875 L 4.203125 -10.515625 L 4 -10.5625 C 3.46875 -10.300781 3 -10.097656 2.59375 -9.953125 C 2.1875 -9.804688 1.664062 -9.671875 1.03125 -9.546875 L 1.03125 -10.859375 C 1.65625 -10.992188 2.273438 -11.175781 2.890625 -11.40625 C 3.503906 -11.632812 4.0625 -11.898438 4.5625 -12.203125 L 5.59375 -12.203125 L 5.59375 -1.1875 L 8.578125 -1.1875 L 8.578125 0 Z M 0.875 0 "/></g></g></g><g fill="#3e2561" fill-opacity="1"><g transform="translate(10.752741, 149.550014)"><g><path d="M 5.03125 0.171875 C 3.882812 0.171875 2.96875 -0.078125 2.28125 -0.578125 C 1.601562 -1.085938 1.160156 -1.804688 0.953125 -2.734375 L 2.015625 -3.21875 L 2.21875 -3.1875 C 2.351562 -2.71875 2.53125 -2.332031 2.75 -2.03125 C 2.976562 -1.726562 3.273438 -1.5 3.640625 -1.34375 C 4.015625 -1.195312 4.476562 -1.125 5.03125 -1.125 C 5.851562 -1.125 6.492188 -1.367188 6.953125 -1.859375 C 7.410156 -2.347656 7.640625 -3.0625 7.640625 -4 C 7.640625 -4.957031 7.410156 -5.6875 6.953125 -6.1875 C 6.503906 -6.6875 5.882812 -6.9375 5.09375 -6.9375 C 4.488281 -6.9375 3.992188 -6.8125 3.609375 -6.5625 C 3.234375 -6.320312 2.898438 -5.945312 2.609375 -5.4375 L 1.453125 -5.546875 L 1.6875 -12.203125 L 8.53125 -12.203125 L 8.53125 -10.984375 L 2.953125 -10.984375 L 2.796875 -6.9375 L 2.984375 -6.90625 C 3.265625 -7.320312 3.613281 -7.632812 4.03125 -7.84375 C 4.445312 -8.050781 4.945312 -8.15625 5.53125 -8.15625 C 6.257812 -8.15625 6.894531 -7.992188 7.4375 -7.671875 C 7.976562 -7.347656 8.394531 -6.875 8.6875 -6.25 C 8.988281 -5.625 9.140625 -4.875 9.140625 -4 C 9.140625 -3.132812 8.96875 -2.382812 8.625 -1.75 C 8.28125 -1.125 7.796875 -0.644531 7.171875 -0.3125 C 6.554688 0.0078125 5.84375 0.171875 5.03125 0.171875 Z M 5.03125 0.171875 "/></g></g></g><g fill="#3e2561" fill-opacity="1"><g transform="translate(20.854383, 149.550014)"><g><path d="M 6 0.171875 C 5.101562 0.171875 4.296875 -0.0390625 3.578125 -0.46875 C 2.867188 -0.90625 2.300781 -1.59375 1.875 -2.53125 C 1.457031 -3.46875 1.25 -4.65625 1.25 -6.09375 C 1.25 -7.539062 1.457031 -8.734375 1.875 -9.671875 C 2.300781 -10.609375 2.867188 -11.289062 3.578125 -11.71875 C 4.296875 -12.15625 5.101562 -12.375 6 -12.375 C 6.894531 -12.375 7.695312 -12.15625 8.40625 -11.71875 C 9.125 -11.289062 9.691406 -10.609375 10.109375 -9.671875 C 10.523438 -8.734375 10.734375 -7.539062 10.734375 -6.09375 C 10.734375 -4.65625 10.523438 -3.46875 10.109375 -2.53125 C 9.691406 -1.59375 9.125 -0.90625 8.40625 -0.46875 C 7.695312 -0.0390625 6.894531 0.171875 6 0.171875 Z M 6 -1.15625 C 7.0625 -1.15625 7.863281 -1.535156 8.40625 -2.296875 C 8.957031 -3.066406 9.234375 -4.332031 9.234375 -6.09375 C 9.234375 -7.863281 8.957031 -9.128906 8.40625 -9.890625 C 7.863281 -10.660156 7.0625 -11.046875 6 -11.046875 C 5.300781 -11.046875 4.710938 -10.882812 4.234375 -10.5625 C 3.753906 -10.238281 3.382812 -9.710938 3.125 -8.984375 C 2.875 -8.253906 2.75 -7.289062 2.75 -6.09375 C 2.75 -4.90625 2.875 -3.945312 3.125 -3.21875 C 3.382812 -2.488281 3.753906 -1.960938 4.234375 -1.640625 C 4.710938 -1.316406 5.300781 -1.15625 6 -1.15625 Z M 6 -1.15625 "/></g></g></g><g fill="#3e2561" fill-opacity="1"><g transform="translate(-0.948648, 13.500019)"><g><path d="M 0.734375 -0.5625 C 0.734375 -1.226562 0.804688 -1.765625 0.953125 -2.171875 C 1.097656 -2.585938 1.347656 -2.972656 1.703125 -3.328125 C 2.066406 -3.691406 2.632812 -4.15625 3.40625 -4.71875 L 4.75 -5.703125 C 5.25 -6.066406 5.65625 -6.398438 5.96875 -6.703125 C 6.28125 -7.003906 6.523438 -7.332031 6.703125 -7.6875 C 6.890625 -8.050781 6.984375 -8.457031 6.984375 -8.90625 C 6.984375 -9.625 6.789062 -10.164062 6.40625 -10.53125 C 6.019531 -10.90625 5.414062 -11.09375 4.59375 -11.09375 C 3.945312 -11.09375 3.375 -10.941406 2.875 -10.640625 C 2.375 -10.335938 1.972656 -9.910156 1.671875 -9.359375 L 1.484375 -9.328125 L 0.625 -10.234375 C 1.039062 -10.898438 1.582031 -11.421875 2.25 -11.796875 C 2.914062 -12.179688 3.695312 -12.375 4.59375 -12.375 C 5.46875 -12.375 6.191406 -12.226562 6.765625 -11.9375 C 7.335938 -11.644531 7.757812 -11.238281 8.03125 -10.71875 C 8.300781 -10.195312 8.4375 -9.59375 8.4375 -8.90625 C 8.4375 -8.363281 8.320312 -7.851562 8.09375 -7.375 C 7.863281 -6.90625 7.539062 -6.460938 7.125 -6.046875 C 6.707031 -5.628906 6.1875 -5.1875 5.5625 -4.71875 L 4.203125 -3.734375 C 3.691406 -3.359375 3.300781 -3.039062 3.03125 -2.78125 C 2.757812 -2.519531 2.5625 -2.265625 2.4375 -2.015625 C 2.3125 -1.765625 2.25 -1.488281 2.25 -1.1875 L 8.4375 -1.1875 L 8.4375 0 L 0.734375 0 Z M 0.734375 -0.5625 "/></g></g></g><g fill="#3e2561" fill-opacity="1"><g transform="translate(8.435027, 13.500019)"><g><path d="M 6 0.171875 C 5.101562 0.171875 4.296875 -0.0390625 3.578125 -0.46875 C 2.867188 -0.90625 2.300781 -1.59375 1.875 -2.53125 C 1.457031 -3.46875 1.25 -4.65625 1.25 -6.09375 C 1.25 -7.539062 1.457031 -8.734375 1.875 -9.671875 C 2.300781 -10.609375 2.867188 -11.289062 3.578125 -11.71875 C 4.296875 -12.15625 5.101562 -12.375 6 -12.375 C 6.894531 -12.375 7.695312 -12.15625 8.40625 -11.71875 C 9.125 -11.289062 9.691406 -10.609375 10.109375 -9.671875 C 10.523438 -8.734375 10.734375 -7.539062 10.734375 -6.09375 C 10.734375 -4.65625 10.523438 -3.46875 10.109375 -2.53125 C 9.691406 -1.59375 9.125 -0.90625 8.40625 -0.46875 C 7.695312 -0.0390625 6.894531 0.171875 6 0.171875 Z M 6 -1.15625 C 7.0625 -1.15625 7.863281 -1.535156 8.40625 -2.296875 C 8.957031 -3.066406 9.234375 -4.332031 9.234375 -6.09375 C 9.234375 -7.863281 8.957031 -9.128906 8.40625 -9.890625 C 7.863281 -10.660156 7.0625 -11.046875 6 -11.046875 C 5.300781 -11.046875 4.710938 -10.882812 4.234375 -10.5625 C 3.753906 -10.238281 3.382812 -9.710938 3.125 -8.984375 C 2.875 -8.253906 2.75 -7.289062 2.75 -6.09375 C 2.75 -4.90625 2.875 -3.945312 3.125 -3.21875 C 3.382812 -2.488281 3.753906 -1.960938 4.234375 -1.640625 C 4.710938 -1.316406 5.300781 -1.15625 6 -1.15625 Z M 6 -1.15625 "/></g></g></g><g fill="#3e2561" fill-opacity="1"><g transform="translate(20.440119, 13.500019)"><g><path d="M 6 0.171875 C 5.101562 0.171875 4.296875 -0.0390625 3.578125 -0.46875 C 2.867188 -0.90625 2.300781 -1.59375 1.875 -2.53125 C 1.457031 -3.46875 1.25 -4.65625 1.25 -6.09375 C 1.25 -7.539062 1.457031 -8.734375 1.875 -9.671875 C 2.300781 -10.609375 2.867188 -11.289062 3.578125 -11.71875 C 4.296875 -12.15625 5.101562 -12.375 6 -12.375 C 6.894531 -12.375 7.695312 -12.15625 8.40625 -11.71875 C 9.125 -11.289062 9.691406 -10.609375 10.109375 -9.671875 C 10.523438 -8.734375 10.734375 -7.539062 10.734375 -6.09375 C 10.734375 -4.65625 10.523438 -3.46875 10.109375 -2.53125 C 9.691406 -1.59375 9.125 -0.90625 8.40625 -0.46875 C 7.695312 -0.0390625 6.894531 0.171875 6 0.171875 Z M 6 -1.15625 C 7.0625 -1.15625 7.863281 -1.535156 8.40625 -2.296875 C 8.957031 -3.066406 9.234375 -4.332031 9.234375 -6.09375 C 9.234375 -7.863281 8.957031 -9.128906 8.40625 -9.890625 C 7.863281 -10.660156 7.0625 -11.046875 6 -11.046875 C 5.300781 -11.046875 4.710938 -10.882812 4.234375 -10.5625 C 3.753906 -10.238281 3.382812 -9.710938 3.125 -8.984375 C 2.875 -8.253906 2.75 -7.289062 2.75 -6.09375 C 2.75 -4.90625 2.875 -3.945312 3.125 -3.21875 C 3.382812 -2.488281 3.753906 -1.960938 4.234375 -1.640625 C 4.710938 -1.316406 5.300781 -1.15625 6 -1.15625 Z M 6 -1.15625 "/></g></g></g><g fill="#3e2561" fill-opacity="1"><g transform="translate(93.280631, 573.749996)"><g><path d="M 0.875 0 L 0.875 -1.1875 L 4.203125 -1.1875 L 4.203125 -10.515625 L 4 -10.5625 C 3.46875 -10.300781 3 -10.097656 2.59375 -9.953125 C 2.1875 -9.804688 1.664062 -9.671875 1.03125 -9.546875 L 1.03125 -10.859375 C 1.65625 -10.992188 2.273438 -11.175781 2.890625 -11.40625 C 3.503906 -11.632812 4.0625 -11.898438 4.5625 -12.203125 L 5.59375 -12.203125 L 5.59375 -1.1875 L 8.578125 -1.1875 L 8.578125 0 Z M 0.875 0 "/></g></g></g><g fill="#3e2561" fill-opacity="1"><g transform="translate(102.380457, 573.749996)"><g><path d="M 5.03125 0.171875 C 3.882812 0.171875 2.96875 -0.078125 2.28125 -0.578125 C 1.601562 -1.085938 1.160156 -1.804688 0.953125 -2.734375 L 2.015625 -3.21875 L 2.21875 -3.1875 C 2.351562 -2.71875 2.53125 -2.332031 2.75 -2.03125 C 2.976562 -1.726562 3.273438 -1.5 3.640625 -1.34375 C 4.015625 -1.195312 4.476562 -1.125 5.03125 -1.125 C 5.851562 -1.125 6.492188 -1.367188 6.953125 -1.859375 C 7.410156 -2.347656 7.640625 -3.0625 7.640625 -4 C 7.640625 -4.957031 7.410156 -5.6875 6.953125 -6.1875 C 6.503906 -6.6875 5.882812 -6.9375 5.09375 -6.9375 C 4.488281 -6.9375 3.992188 -6.8125 3.609375 -6.5625 C 3.234375 -6.320312 2.898438 -5.945312 2.609375 -5.4375 L 1.453125 -5.546875 L 1.6875 -12.203125 L 8.53125 -12.203125 L 8.53125 -10.984375 L 2.953125 -10.984375 L 2.796875 -6.9375 L 2.984375 -6.90625 C 3.265625 -7.320312 3.613281 -7.632812 4.03125 -7.84375 C 4.445312 -8.050781 4.945312 -8.15625 5.53125 -8.15625 C 6.257812 -8.15625 6.894531 -7.992188 7.4375 -7.671875 C 7.976562 -7.347656 8.394531 -6.875 8.6875 -6.25 C 8.988281 -5.625 9.140625 -4.875 9.140625 -4 C 9.140625 -3.132812 8.96875 -2.382812 8.625 -1.75 C 8.28125 -1.125 7.796875 -0.644531 7.171875 -0.3125 C 6.554688 0.0078125 5.84375 0.171875 5.03125 0.171875 Z M 5.03125 0.171875 "/></g></g></g><g fill="#3e2561" fill-opacity="1"><g transform="translate(112.4821, 573.749996)"><g><path d="M 5.625 -5.3125 L 0.875 -5.3125 L 0.875 -6.53125 L 5.625 -6.53125 Z M 5.625 -5.3125 "/></g></g></g><g fill="#3e2561" fill-opacity="1"><g transform="translate(118.960508, 573.749996)"><g><path d="M 6 0.171875 C 5.101562 0.171875 4.296875 -0.0390625 3.578125 -0.46875 C 2.867188 -0.90625 2.300781 -1.59375 1.875 -2.53125 C 1.457031 -3.46875 1.25 -4.65625 1.25 -6.09375 C 1.25 -7.539062 1.457031 -8.734375 1.875 -9.671875 C 2.300781 -10.609375 2.867188 -11.289062 3.578125 -11.71875 C 4.296875 -12.15625 5.101562 -12.375 6 -12.375 C 6.894531 -12.375 7.695312 -12.15625 8.40625 -11.71875 C 9.125 -11.289062 9.691406 -10.609375 10.109375 -9.671875 C 10.523438 -8.734375 10.734375 -7.539062 10.734375 -6.09375 C 10.734375 -4.65625 10.523438 -3.46875 10.109375 -2.53125 C 9.691406 -1.59375 9.125 -0.90625 8.40625 -0.46875 C 7.695312 -0.0390625 6.894531 0.171875 6 0.171875 Z M 6 -1.15625 C 7.0625 -1.15625 7.863281 -1.535156 8.40625 -2.296875 C 8.957031 -3.066406 9.234375 -4.332031 9.234375 -6.09375 C 9.234375 -7.863281 8.957031 -9.128906 8.40625 -9.890625 C 7.863281 -10.660156 7.0625 -11.046875 6 -11.046875 C 5.300781 -11.046875 4.710938 -10.882812 4.234375 -10.5625 C 3.753906 -10.238281 3.382812 -9.710938 3.125 -8.984375 C 2.875 -8.253906 2.75 -7.289062 2.75 -6.09375 C 2.75 -4.90625 2.875 -3.945312 3.125 -3.21875 C 3.382812 -2.488281 3.753906 -1.960938 4.234375 -1.640625 C 4.710938 -1.316406 5.300781 -1.15625 6 -1.15625 Z M 6 -1.15625 "/></g></g></g><g fill="#3e2561" fill-opacity="1"><g transform="translate(130.9656, 573.749996)"><g><path d="M 7.640625 0 L 6.28125 0 L 6.28125 -2.90625 L 0.5625 -2.90625 L 0.5625 -4.0625 L 5.9375 -12.203125 L 7.640625 -12.203125 L 7.640625 -4.0625 L 9.75 -4.0625 L 9.75 -2.90625 L 7.640625 -2.90625 Z M 2.25 -4.234375 L 2.328125 -4.0625 L 6.28125 -4.0625 L 6.28125 -10.21875 L 6.078125 -10.25 Z M 2.25 -4.234375 "/></g></g></g><g fill="#3e2561" fill-opacity="1"><g transform="translate(238.468262, 573.749996)"><g><path d="M 0.734375 -0.5625 C 0.734375 -1.226562 0.804688 -1.765625 0.953125 -2.171875 C 1.097656 -2.585938 1.347656 -2.972656 1.703125 -3.328125 C 2.066406 -3.691406 2.632812 -4.15625 3.40625 -4.71875 L 4.75 -5.703125 C 5.25 -6.066406 5.65625 -6.398438 5.96875 -6.703125 C 6.28125 -7.003906 6.523438 -7.332031 6.703125 -7.6875 C 6.890625 -8.050781 6.984375 -8.457031 6.984375 -8.90625 C 6.984375 -9.625 6.789062 -10.164062 6.40625 -10.53125 C 6.019531 -10.90625 5.414062 -11.09375 4.59375 -11.09375 C 3.945312 -11.09375 3.375 -10.941406 2.875 -10.640625 C 2.375 -10.335938 1.972656 -9.910156 1.671875 -9.359375 L 1.484375 -9.328125 L 0.625 -10.234375 C 1.039062 -10.898438 1.582031 -11.421875 2.25 -11.796875 C 2.914062 -12.179688 3.695312 -12.375 4.59375 -12.375 C 5.46875 -12.375 6.191406 -12.226562 6.765625 -11.9375 C 7.335938 -11.644531 7.757812 -11.238281 8.03125 -10.71875 C 8.300781 -10.195312 8.4375 -9.59375 8.4375 -8.90625 C 8.4375 -8.363281 8.320312 -7.851562 8.09375 -7.375 C 7.863281 -6.90625 7.539062 -6.460938 7.125 -6.046875 C 6.707031 -5.628906 6.1875 -5.1875 5.5625 -4.71875 L 4.203125 -3.734375 C 3.691406 -3.359375 3.300781 -3.039062 3.03125 -2.78125 C 2.757812 -2.519531 2.5625 -2.265625 2.4375 -2.015625 C 2.3125 -1.765625 2.25 -1.488281 2.25 -1.1875 L 8.4375 -1.1875 L 8.4375 0 L 0.734375 0 Z M 0.734375 -0.5625 "/></g></g></g><g fill="#3e2561" fill-opacity="1"><g transform="translate(247.851936, 573.749996)"><g><path d="M 0.734375 -0.5625 C 0.734375 -1.226562 0.804688 -1.765625 0.953125 -2.171875 C 1.097656 -2.585938 1.347656 -2.972656 1.703125 -3.328125 C 2.066406 -3.691406 2.632812 -4.15625 3.40625 -4.71875 L 4.75 -5.703125 C 5.25 -6.066406 5.65625 -6.398438 5.96875 -6.703125 C 6.28125 -7.003906 6.523438 -7.332031 6.703125 -7.6875 C 6.890625 -8.050781 6.984375 -8.457031 6.984375 -8.90625 C 6.984375 -9.625 6.789062 -10.164062 6.40625 -10.53125 C 6.019531 -10.90625 5.414062 -11.09375 4.59375 -11.09375 C 3.945312 -11.09375 3.375 -10.941406 2.875 -10.640625 C 2.375 -10.335938 1.972656 -9.910156 1.671875 -9.359375 L 1.484375 -9.328125 L 0.625 -10.234375 C 1.039062 -10.898438 1.582031 -11.421875 2.25 -11.796875 C 2.914062 -12.179688 3.695312 -12.375 4.59375 -12.375 C 5.46875 -12.375 6.191406 -12.226562 6.765625 -11.9375 C 7.335938 -11.644531 7.757812 -11.238281 8.03125 -10.71875 C 8.300781 -10.195312 8.4375 -9.59375 8.4375 -8.90625 C 8.4375 -8.363281 8.320312 -7.851562 8.09375 -7.375 C 7.863281 -6.90625 7.539062 -6.460938 7.125 -6.046875 C 6.707031 -5.628906 6.1875 -5.1875 5.5625 -4.71875 L 4.203125 -3.734375 C 3.691406 -3.359375 3.300781 -3.039062 3.03125 -2.78125 C 2.757812 -2.519531 2.5625 -2.265625 2.4375 -2.015625 C 2.3125 -1.765625 2.25 -1.488281 2.25 -1.1875 L 8.4375 -1.1875 L 8.4375 0 L 0.734375 0 Z M 0.734375 -0.5625 "/></g></g></g><g fill="#3e2561" fill-opacity="1"><g transform="translate(257.23561, 573.749996)"><g><path d="M 5.625 -5.3125 L 0.875 -5.3125 L 0.875 -6.53125 L 5.625 -6.53125 Z M 5.625 -5.3125 "/></g></g></g><g fill="#3e2561" fill-opacity="1"><g transform="translate(263.714019, 573.749996)"><g><path d="M 6 0.171875 C 5.101562 0.171875 4.296875 -0.0390625 3.578125 -0.46875 C 2.867188 -0.90625 2.300781 -1.59375 1.875 -2.53125 C 1.457031 -3.46875 1.25 -4.65625 1.25 -6.09375 C 1.25 -7.539062 1.457031 -8.734375 1.875 -9.671875 C 2.300781 -10.609375 2.867188 -11.289062 3.578125 -11.71875 C 4.296875 -12.15625 5.101562 -12.375 6 -12.375 C 6.894531 -12.375 7.695312 -12.15625 8.40625 -11.71875 C 9.125 -11.289062 9.691406 -10.609375 10.109375 -9.671875 C 10.523438 -8.734375 10.734375 -7.539062 10.734375 -6.09375 C 10.734375 -4.65625 10.523438 -3.46875 10.109375 -2.53125 C 9.691406 -1.59375 9.125 -0.90625 8.40625 -0.46875 C 7.695312 -0.0390625 6.894531 0.171875 6 0.171875 Z M 6 -1.15625 C 7.0625 -1.15625 7.863281 -1.535156 8.40625 -2.296875 C 8.957031 -3.066406 9.234375 -4.332031 9.234375 -6.09375 C 9.234375 -7.863281 8.957031 -9.128906 8.40625 -9.890625 C 7.863281 -10.660156 7.0625 -11.046875 6 -11.046875 C 5.300781 -11.046875 4.710938 -10.882812 4.234375 -10.5625 C 3.753906 -10.238281 3.382812 -9.710938 3.125 -8.984375 C 2.875 -8.253906 2.75 -7.289062 2.75 -6.09375 C 2.75 -4.90625 2.875 -3.945312 3.125 -3.21875 C 3.382812 -2.488281 3.753906 -1.960938 4.234375 -1.640625 C 4.710938 -1.316406 5.300781 -1.15625 6 -1.15625 Z M 6 -1.15625 "/></g></g></g><g fill="#3e2561" fill-opacity="1"><g transform="translate(275.719111, 573.749996)"><g><path d="M 7.640625 0 L 6.28125 0 L 6.28125 -2.90625 L 0.5625 -2.90625 L 0.5625 -4.0625 L 5.9375 -12.203125 L 7.640625 -12.203125 L 7.640625 -4.0625 L 9.75 -4.0625 L 9.75 -2.90625 L 7.640625 -2.90625 Z M 2.25 -4.234375 L 2.328125 -4.0625 L 6.28125 -4.0625 L 6.28125 -10.21875 L 6.078125 -10.25 Z M 2.25 -4.234375 "/></g></g></g><g fill="#3e2561" fill-opacity="1"><g transform="translate(381.89808, 573.749996)"><g><path d="M 0.734375 -0.5625 C 0.734375 -1.226562 0.804688 -1.765625 0.953125 -2.171875 C 1.097656 -2.585938 1.347656 -2.972656 1.703125 -3.328125 C 2.066406 -3.691406 2.632812 -4.15625 3.40625 -4.71875 L 4.75 -5.703125 C 5.25 -6.066406 5.65625 -6.398438 5.96875 -6.703125 C 6.28125 -7.003906 6.523438 -7.332031 6.703125 -7.6875 C 6.890625 -8.050781 6.984375 -8.457031 6.984375 -8.90625 C 6.984375 -9.625 6.789062 -10.164062 6.40625 -10.53125 C 6.019531 -10.90625 5.414062 -11.09375 4.59375 -11.09375 C 3.945312 -11.09375 3.375 -10.941406 2.875 -10.640625 C 2.375 -10.335938 1.972656 -9.910156 1.671875 -9.359375 L 1.484375 -9.328125 L 0.625 -10.234375 C 1.039062 -10.898438 1.582031 -11.421875 2.25 -11.796875 C 2.914062 -12.179688 3.695312 -12.375 4.59375 -12.375 C 5.46875 -12.375 6.191406 -12.226562 6.765625 -11.9375 C 7.335938 -11.644531 7.757812 -11.238281 8.03125 -10.71875 C 8.300781 -10.195312 8.4375 -9.59375 8.4375 -8.90625 C 8.4375 -8.363281 8.320312 -7.851562 8.09375 -7.375 C 7.863281 -6.90625 7.539062 -6.460938 7.125 -6.046875 C 6.707031 -5.628906 6.1875 -5.1875 5.5625 -4.71875 L 4.203125 -3.734375 C 3.691406 -3.359375 3.300781 -3.039062 3.03125 -2.78125 C 2.757812 -2.519531 2.5625 -2.265625 2.4375 -2.015625 C 2.3125 -1.765625 2.25 -1.488281 2.25 -1.1875 L 8.4375 -1.1875 L 8.4375 0 L 0.734375 0 Z M 0.734375 -0.5625 "/></g></g></g><g fill="#3e2561" fill-opacity="1"><g transform="translate(391.281754, 573.749996)"><g><path d="M 5.15625 0.171875 C 4.101562 0.171875 3.242188 -0.0664062 2.578125 -0.546875 C 1.921875 -1.023438 1.503906 -1.6875 1.328125 -2.53125 L 2.390625 -3.015625 L 2.578125 -2.984375 C 2.773438 -2.359375 3.070312 -1.890625 3.46875 -1.578125 C 3.875 -1.273438 4.4375 -1.125 5.15625 -1.125 C 6.164062 -1.125 6.9375 -1.546875 7.46875 -2.390625 C 8.007812 -3.234375 8.28125 -4.539062 8.28125 -6.3125 L 8.109375 -6.359375 C 7.765625 -5.660156 7.332031 -5.140625 6.8125 -4.796875 C 6.289062 -4.460938 5.628906 -4.296875 4.828125 -4.296875 C 4.066406 -4.296875 3.40625 -4.457031 2.84375 -4.78125 C 2.28125 -5.113281 1.84375 -5.582031 1.53125 -6.1875 C 1.226562 -6.800781 1.078125 -7.507812 1.078125 -8.3125 C 1.078125 -9.113281 1.242188 -9.820312 1.578125 -10.4375 C 1.921875 -11.0625 2.398438 -11.539062 3.015625 -11.875 C 3.628906 -12.207031 4.34375 -12.375 5.15625 -12.375 C 6.582031 -12.375 7.703125 -11.890625 8.515625 -10.921875 C 9.328125 -9.960938 9.734375 -8.40625 9.734375 -6.25 C 9.734375 -4.789062 9.539062 -3.582031 9.15625 -2.625 C 8.769531 -1.664062 8.234375 -0.957031 7.546875 -0.5 C 6.867188 -0.0507812 6.070312 0.171875 5.15625 0.171875 Z M 5.15625 -5.546875 C 5.707031 -5.546875 6.1875 -5.648438 6.59375 -5.859375 C 7 -6.078125 7.3125 -6.394531 7.53125 -6.8125 C 7.75 -7.226562 7.859375 -7.726562 7.859375 -8.3125 C 7.859375 -8.894531 7.75 -9.394531 7.53125 -9.8125 C 7.3125 -10.226562 7 -10.546875 6.59375 -10.765625 C 6.1875 -10.984375 5.707031 -11.09375 5.15625 -11.09375 C 4.351562 -11.09375 3.722656 -10.851562 3.265625 -10.375 C 2.804688 -9.90625 2.578125 -9.21875 2.578125 -8.3125 C 2.578125 -7.414062 2.804688 -6.726562 3.265625 -6.25 C 3.722656 -5.78125 4.351562 -5.546875 5.15625 -5.546875 Z M 5.15625 -5.546875 "/></g></g></g><g fill="#3e2561" fill-opacity="1"><g transform="translate(402.268334, 573.749996)"><g><path d="M 5.625 -5.3125 L 0.875 -5.3125 L 0.875 -6.53125 L 5.625 -6.53125 Z M 5.625 -5.3125 "/></g></g></g><g fill="#3e2561" fill-opacity="1"><g transform="translate(408.746742, 573.749996)"><g><path d="M 6 0.171875 C 5.101562 0.171875 4.296875 -0.0390625 3.578125 -0.46875 C 2.867188 -0.90625 2.300781 -1.59375 1.875 -2.53125 C 1.457031 -3.46875 1.25 -4.65625 1.25 -6.09375 C 1.25 -7.539062 1.457031 -8.734375 1.875 -9.671875 C 2.300781 -10.609375 2.867188 -11.289062 3.578125 -11.71875 C 4.296875 -12.15625 5.101562 -12.375 6 -12.375 C 6.894531 -12.375 7.695312 -12.15625 8.40625 -11.71875 C 9.125 -11.289062 9.691406 -10.609375 10.109375 -9.671875 C 10.523438 -8.734375 10.734375 -7.539062 10.734375 -6.09375 C 10.734375 -4.65625 10.523438 -3.46875 10.109375 -2.53125 C 9.691406 -1.59375 9.125 -0.90625 8.40625 -0.46875 C 7.695312 -0.0390625 6.894531 0.171875 6 0.171875 Z M 6 -1.15625 C 7.0625 -1.15625 7.863281 -1.535156 8.40625 -2.296875 C 8.957031 -3.066406 9.234375 -4.332031 9.234375 -6.09375 C 9.234375 -7.863281 8.957031 -9.128906 8.40625 -9.890625 C 7.863281 -10.660156 7.0625 -11.046875 6 -11.046875 C 5.300781 -11.046875 4.710938 -10.882812 4.234375 -10.5625 C 3.753906 -10.238281 3.382812 -9.710938 3.125 -8.984375 C 2.875 -8.253906 2.75 -7.289062 2.75 -6.09375 C 2.75 -4.90625 2.875 -3.945312 3.125 -3.21875 C 3.382812 -2.488281 3.753906 -1.960938 4.234375 -1.640625 C 4.710938 -1.316406 5.300781 -1.15625 6 -1.15625 Z M 6 -1.15625 "/></g></g></g><g fill="#3e2561" fill-opacity="1"><g transform="translate(420.751834, 573.749996)"><g><path d="M 7.640625 0 L 6.28125 0 L 6.28125 -2.90625 L 0.5625 -2.90625 L 0.5625 -4.0625 L 5.9375 -12.203125 L 7.640625 -12.203125 L 7.640625 -4.0625 L 9.75 -4.0625 L 9.75 -2.90625 L 7.640625 -2.90625 Z M 2.25 -4.234375 L 2.328125 -4.0625 L 6.28125 -4.0625 L 6.28125 -10.21875 L 6.078125 -10.25 Z M 2.25 -4.234375 "/></g></g></g><g fill="#3e2561" fill-opacity="1"><g transform="translate(525.304441, 573.749996)"><g><path d="M 6 0.171875 C 5.101562 0.171875 4.296875 -0.0390625 3.578125 -0.46875 C 2.867188 -0.90625 2.300781 -1.59375 1.875 -2.53125 C 1.457031 -3.46875 1.25 -4.65625 1.25 -6.09375 C 1.25 -7.539062 1.457031 -8.734375 1.875 -9.671875 C 2.300781 -10.609375 2.867188 -11.289062 3.578125 -11.71875 C 4.296875 -12.15625 5.101562 -12.375 6 -12.375 C 6.894531 -12.375 7.695312 -12.15625 8.40625 -11.71875 C 9.125 -11.289062 9.691406 -10.609375 10.109375 -9.671875 C 10.523438 -8.734375 10.734375 -7.539062 10.734375 -6.09375 C 10.734375 -4.65625 10.523438 -3.46875 10.109375 -2.53125 C 9.691406 -1.59375 9.125 -0.90625 8.40625 -0.46875 C 7.695312 -0.0390625 6.894531 0.171875 6 0.171875 Z M 6 -1.15625 C 7.0625 -1.15625 7.863281 -1.535156 8.40625 -2.296875 C 8.957031 -3.066406 9.234375 -4.332031 9.234375 -6.09375 C 9.234375 -7.863281 8.957031 -9.128906 8.40625 -9.890625 C 7.863281 -10.660156 7.0625 -11.046875 6 -11.046875 C 5.300781 -11.046875 4.710938 -10.882812 4.234375 -10.5625 C 3.753906 -10.238281 3.382812 -9.710938 3.125 -8.984375 C 2.875 -8.253906 2.75 -7.289062 2.75 -6.09375 C 2.75 -4.90625 2.875 -3.945312 3.125 -3.21875 C 3.382812 -2.488281 3.753906 -1.960938 4.234375 -1.640625 C 4.710938 -1.316406 5.300781 -1.15625 6 -1.15625 Z M 6 -1.15625 "/></g></g></g><g fill="#3e2561" fill-opacity="1"><g transform="translate(537.309534, 573.749996)"><g><path d="M 5.828125 0.171875 C 4.960938 0.171875 4.1875 -0.03125 3.5 -0.4375 C 2.820312 -0.851562 2.273438 -1.53125 1.859375 -2.46875 C 1.453125 -3.40625 1.25 -4.613281 1.25 -6.09375 C 1.25 -7.539062 1.453125 -8.734375 1.859375 -9.671875 C 2.273438 -10.609375 2.832031 -11.289062 3.53125 -11.71875 C 4.238281 -12.15625 5.046875 -12.375 5.953125 -12.375 C 7.523438 -12.375 8.679688 -11.898438 9.421875 -10.953125 L 8.71875 -10 L 8.5 -10 C 7.90625 -10.726562 7.054688 -11.09375 5.953125 -11.09375 C 4.898438 -11.09375 4.09375 -10.691406 3.53125 -9.890625 C 2.976562 -9.097656 2.703125 -7.820312 2.703125 -6.0625 L 2.875 -6.015625 C 3.207031 -6.703125 3.640625 -7.21875 4.171875 -7.5625 C 4.710938 -7.914062 5.375 -8.09375 6.15625 -8.09375 C 6.925781 -8.09375 7.59375 -7.925781 8.15625 -7.59375 C 8.71875 -7.269531 9.148438 -6.796875 9.453125 -6.171875 C 9.753906 -5.546875 9.90625 -4.8125 9.90625 -3.96875 C 9.90625 -3.125 9.738281 -2.390625 9.40625 -1.765625 C 9.070312 -1.140625 8.597656 -0.660156 7.984375 -0.328125 C 7.367188 0.00390625 6.648438 0.171875 5.828125 0.171875 Z M 5.828125 -1.125 C 6.628906 -1.125 7.257812 -1.367188 7.71875 -1.859375 C 8.175781 -2.347656 8.40625 -3.050781 8.40625 -3.96875 C 8.40625 -4.894531 8.175781 -5.601562 7.71875 -6.09375 C 7.257812 -6.582031 6.628906 -6.828125 5.828125 -6.828125 C 5.273438 -6.828125 4.796875 -6.710938 4.390625 -6.484375 C 3.984375 -6.265625 3.671875 -5.941406 3.453125 -5.515625 C 3.234375 -5.085938 3.125 -4.570312 3.125 -3.96875 C 3.125 -3.375 3.234375 -2.863281 3.453125 -2.4375 C 3.671875 -2.007812 3.984375 -1.679688 4.390625 -1.453125 C 4.796875 -1.234375 5.273438 -1.125 5.828125 -1.125 Z M 5.828125 -1.125 "/></g></g></g><g fill="#3e2561" fill-opacity="1"><g transform="translate(548.304467, 573.749996)"><g><path d="M 5.625 -5.3125 L 0.875 -5.3125 L 0.875 -6.53125 L 5.625 -6.53125 Z M 5.625 -5.3125 "/></g></g></g><g fill="#3e2561" fill-opacity="1"><g transform="translate(554.782876, 573.749996)"><g><path d="M 6 0.171875 C 5.101562 0.171875 4.296875 -0.0390625 3.578125 -0.46875 C 2.867188 -0.90625 2.300781 -1.59375 1.875 -2.53125 C 1.457031 -3.46875 1.25 -4.65625 1.25 -6.09375 C 1.25 -7.539062 1.457031 -8.734375 1.875 -9.671875 C 2.300781 -10.609375 2.867188 -11.289062 3.578125 -11.71875 C 4.296875 -12.15625 5.101562 -12.375 6 -12.375 C 6.894531 -12.375 7.695312 -12.15625 8.40625 -11.71875 C 9.125 -11.289062 9.691406 -10.609375 10.109375 -9.671875 C 10.523438 -8.734375 10.734375 -7.539062 10.734375 -6.09375 C 10.734375 -4.65625 10.523438 -3.46875 10.109375 -2.53125 C 9.691406 -1.59375 9.125 -0.90625 8.40625 -0.46875 C 7.695312 -0.0390625 6.894531 0.171875 6 0.171875 Z M 6 -1.15625 C 7.0625 -1.15625 7.863281 -1.535156 8.40625 -2.296875 C 8.957031 -3.066406 9.234375 -4.332031 9.234375 -6.09375 C 9.234375 -7.863281 8.957031 -9.128906 8.40625 -9.890625 C 7.863281 -10.660156 7.0625 -11.046875 6 -11.046875 C 5.300781 -11.046875 4.710938 -10.882812 4.234375 -10.5625 C 3.753906 -10.238281 3.382812 -9.710938 3.125 -8.984375 C 2.875 -8.253906 2.75 -7.289062 2.75 -6.09375 C 2.75 -4.90625 2.875 -3.945312 3.125 -3.21875 C 3.382812 -2.488281 3.753906 -1.960938 4.234375 -1.640625 C 4.710938 -1.316406 5.300781 -1.15625 6 -1.15625 Z M 6 -1.15625 "/></g></g></g><g fill="#3e2561" fill-opacity="1"><g transform="translate(566.787968, 573.749996)"><g><path d="M 5.03125 0.171875 C 3.882812 0.171875 2.96875 -0.078125 2.28125 -0.578125 C 1.601562 -1.085938 1.160156 -1.804688 0.953125 -2.734375 L 2.015625 -3.21875 L 2.21875 -3.1875 C 2.351562 -2.71875 2.53125 -2.332031 2.75 -2.03125 C 2.976562 -1.726562 3.273438 -1.5 3.640625 -1.34375 C 4.015625 -1.195312 4.476562 -1.125 5.03125 -1.125 C 5.851562 -1.125 6.492188 -1.367188 6.953125 -1.859375 C 7.410156 -2.347656 7.640625 -3.0625 7.640625 -4 C 7.640625 -4.957031 7.410156 -5.6875 6.953125 -6.1875 C 6.503906 -6.6875 5.882812 -6.9375 5.09375 -6.9375 C 4.488281 -6.9375 3.992188 -6.8125 3.609375 -6.5625 C 3.234375 -6.320312 2.898438 -5.945312 2.609375 -5.4375 L 1.453125 -5.546875 L 1.6875 -12.203125 L 8.53125 -12.203125 L 8.53125 -10.984375 L 2.953125 -10.984375 L 2.796875 -6.9375 L 2.984375 -6.90625 C 3.265625 -7.320312 3.613281 -7.632812 4.03125 -7.84375 C 4.445312 -8.050781 4.945312 -8.15625 5.53125 -8.15625 C 6.257812 -8.15625 6.894531 -7.992188 7.4375 -7.671875 C 7.976562 -7.347656 8.394531 -6.875 8.6875 -6.25 C 8.988281 -5.625 9.140625 -4.875 9.140625 -4 C 9.140625 -3.132812 8.96875 -2.382812 8.625 -1.75 C 8.28125 -1.125 7.796875 -0.644531 7.171875 -0.3125 C 6.554688 0.0078125 5.84375 0.171875 5.03125 0.171875 Z M 5.03125 0.171875 "/></g></g></g><g fill="#3e2561" fill-opacity="1"><g transform="translate(671.628772, 573.749996)"><g><path d="M 0.875 0 L 0.875 -1.1875 L 4.203125 -1.1875 L 4.203125 -10.515625 L 4 -10.5625 C 3.46875 -10.300781 3 -10.097656 2.59375 -9.953125 C 2.1875 -9.804688 1.664062 -9.671875 1.03125 -9.546875 L 1.03125 -10.859375 C 1.65625 -10.992188 2.273438 -11.175781 2.890625 -11.40625 C 3.503906 -11.632812 4.0625 -11.898438 4.5625 -12.203125 L 5.59375 -12.203125 L 5.59375 -1.1875 L 8.578125 -1.1875 L 8.578125 0 Z M 0.875 0 "/></g></g></g><g fill="#3e2561" fill-opacity="1"><g transform="translate(680.728598, 573.749996)"><g><path d="M 4.828125 0.171875 C 3.648438 0.171875 2.710938 -0.09375 2.015625 -0.625 C 1.316406 -1.15625 0.863281 -1.894531 0.65625 -2.84375 L 1.734375 -3.328125 L 1.921875 -3.296875 C 2.128906 -2.566406 2.453125 -2.019531 2.890625 -1.65625 C 3.335938 -1.300781 3.984375 -1.125 4.828125 -1.125 C 5.691406 -1.125 6.347656 -1.316406 6.796875 -1.703125 C 7.253906 -2.097656 7.484375 -2.679688 7.484375 -3.453125 C 7.484375 -4.203125 7.25 -4.773438 6.78125 -5.171875 C 6.320312 -5.566406 5.601562 -5.765625 4.625 -5.765625 L 3.296875 -5.765625 L 3.296875 -6.953125 L 4.484375 -6.953125 C 5.253906 -6.953125 5.863281 -7.140625 6.3125 -7.515625 C 6.769531 -7.898438 7 -8.441406 7 -9.140625 C 7 -9.796875 6.800781 -10.289062 6.40625 -10.625 C 6.007812 -10.957031 5.457031 -11.125 4.75 -11.125 C 3.519531 -11.125 2.644531 -10.632812 2.125 -9.65625 L 1.9375 -9.625 L 1.140625 -10.5 C 1.460938 -11.0625 1.929688 -11.515625 2.546875 -11.859375 C 3.171875 -12.203125 3.90625 -12.375 4.75 -12.375 C 5.53125 -12.375 6.195312 -12.253906 6.75 -12.015625 C 7.300781 -11.773438 7.71875 -11.425781 8 -10.96875 C 8.28125 -10.507812 8.421875 -9.960938 8.421875 -9.328125 C 8.421875 -8.734375 8.242188 -8.207031 7.890625 -7.75 C 7.546875 -7.289062 7.085938 -6.929688 6.515625 -6.671875 L 6.515625 -6.5 C 7.328125 -6.300781 7.9375 -5.9375 8.34375 -5.40625 C 8.75 -4.875 8.953125 -4.222656 8.953125 -3.453125 C 8.953125 -2.296875 8.601562 -1.398438 7.90625 -0.765625 C 7.21875 -0.140625 6.191406 0.171875 4.828125 0.171875 Z M 4.828125 0.171875 "/></g></g></g><g fill="#3e2561" fill-opacity="1"><g transform="translate(690.437834, 573.749996)"><g><path d="M 5.625 -5.3125 L 0.875 -5.3125 L 0.875 -6.53125 L 5.625 -6.53125 Z M 5.625 -5.3125 "/></g></g></g><g fill="#3e2561" fill-opacity="1"><g transform="translate(696.916242, 573.749996)"><g><path d="M 6 0.171875 C 5.101562 0.171875 4.296875 -0.0390625 3.578125 -0.46875 C 2.867188 -0.90625 2.300781 -1.59375 1.875 -2.53125 C 1.457031 -3.46875 1.25 -4.65625 1.25 -6.09375 C 1.25 -7.539062 1.457031 -8.734375 1.875 -9.671875 C 2.300781 -10.609375 2.867188 -11.289062 3.578125 -11.71875 C 4.296875 -12.15625 5.101562 -12.375 6 -12.375 C 6.894531 -12.375 7.695312 -12.15625 8.40625 -11.71875 C 9.125 -11.289062 9.691406 -10.609375 10.109375 -9.671875 C 10.523438 -8.734375 10.734375 -7.539062 10.734375 -6.09375 C 10.734375 -4.65625 10.523438 -3.46875 10.109375 -2.53125 C 9.691406 -1.59375 9.125 -0.90625 8.40625 -0.46875 C 7.695312 -0.0390625 6.894531 0.171875 6 0.171875 Z M 6 -1.15625 C 7.0625 -1.15625 7.863281 -1.535156 8.40625 -2.296875 C 8.957031 -3.066406 9.234375 -4.332031 9.234375 -6.09375 C 9.234375 -7.863281 8.957031 -9.128906 8.40625 -9.890625 C 7.863281 -10.660156 7.0625 -11.046875 6 -11.046875 C 5.300781 -11.046875 4.710938 -10.882812 4.234375 -10.5625 C 3.753906 -10.238281 3.382812 -9.710938 3.125 -8.984375 C 2.875 -8.253906 2.75 -7.289062 2.75 -6.09375 C 2.75 -4.90625 2.875 -3.945312 3.125 -3.21875 C 3.382812 -2.488281 3.753906 -1.960938 4.234375 -1.640625 C 4.710938 -1.316406 5.300781 -1.15625 6 -1.15625 Z M 6 -1.15625 "/></g></g></g><g fill="#3e2561" fill-opacity="1"><g transform="translate(708.921334, 573.749996)"><g><path d="M 5.03125 0.171875 C 3.882812 0.171875 2.96875 -0.078125 2.28125 -0.578125 C 1.601562 -1.085938 1.160156 -1.804688 0.953125 -2.734375 L 2.015625 -3.21875 L 2.21875 -3.1875 C 2.351562 -2.71875 2.53125 -2.332031 2.75 -2.03125 C 2.976562 -1.726562 3.273438 -1.5 3.640625 -1.34375 C 4.015625 -1.195312 4.476562 -1.125 5.03125 -1.125 C 5.851562 -1.125 6.492188 -1.367188 6.953125 -1.859375 C 7.410156 -2.347656 7.640625 -3.0625 7.640625 -4 C 7.640625 -4.957031 7.410156 -5.6875 6.953125 -6.1875 C 6.503906 -6.6875 5.882812 -6.9375 5.09375 -6.9375 C 4.488281 -6.9375 3.992188 -6.8125 3.609375 -6.5625 C 3.234375 -6.320312 2.898438 -5.945312 2.609375 -5.4375 L 1.453125 -5.546875 L 1.6875 -12.203125 L 8.53125 -12.203125 L 8.53125 -10.984375 L 2.953125 -10.984375 L 2.796875 -6.9375 L 2.984375 -6.90625 C 3.265625 -7.320312 3.613281 -7.632812 4.03125 -7.84375 C 4.445312 -8.050781 4.945312 -8.15625 5.53125 -8.15625 C 6.257812 -8.15625 6.894531 -7.992188 7.4375 -7.671875 C 7.976562 -7.347656 8.394531 -6.875 8.6875 -6.25 C 8.988281 -5.625 9.140625 -4.875 9.140625 -4 C 9.140625 -3.132812 8.96875 -2.382812 8.625 -1.75 C 8.28125 -1.125 7.796875 -0.644531 7.171875 -0.3125 C 6.554688 0.0078125 5.84375 0.171875 5.03125 0.171875 Z M 5.03125 0.171875 "/></g></g></g><g mask="url(#6ce9c75183)"><g transform="matrix(1, 0, 0, 1, 44, 551)"><g clip-path="url(#789279f88c)"><g clip-path="url(#23e4dd92e6)"><path stroke-linecap="butt" transform="matrix(0.75, 0, 0, 0.75, 0.991502, -543.49998)" fill="none" stroke-linejoin="miter" d="M 0.000913961 725.598962 L 964.011371 725.598962 " stroke="#3e2561" stroke-width="1" stroke-opacity="1" stroke-miterlimit="4"/></g></g></g></g><g mask="url(#2e0415854a)"><g transform="matrix(1, 0, 0, 1, 44, 414)"><g clip-path="url(#a583a50ceb)"><g clip-path="url(#1b83dc3975)"><path stroke-linecap="butt" transform="matrix(0.75, 0, 0, 0.75, 0.991502, -406.49998)" fill="none" stroke-linejoin="miter" d="M 0.000913961 544.197913 L 964.011371 544.197913 " stroke="#3e2561" stroke-width="1" stroke-opacity="1" stroke-miterlimit="4"/></g></g></g></g><g mask="url(#0e06686db6)"><g transform="matrix(1, 0, 0, 1, 44, 278)"><g clip-path="url(#6e57c0a020)"><g clip-path="url(#e8bd0889e1)"><path stroke-linecap="butt" transform="matrix(0.75, 0, 0, 0.75, 0.991502, -270.49998)" fill="none" stroke-linejoin="miter" d="M 0.000913961 362.802072 L 964.011371 362.802072 " stroke="#3e2561" stroke-width="1" stroke-opacity="1" stroke-miterlimit="4"/></g></g></g></g><g mask="url(#0b05571194)"><g transform="matrix(1, 0, 0, 1, 44, 142)"><g clip-path="url(#beccfd9ba1)"><g clip-path="url(#9074a51f6c)"><path stroke-linecap="butt" transform="matrix(0.75, 0, 0, 0.75, 0.991502, -134.49998)" fill="none" stroke-linejoin="miter" d="M 0.000913961 181.401023 L 964.011371 181.401023 " stroke="#3e2561" stroke-width="1" stroke-opacity="1" stroke-miterlimit="4"/></g></g></g></g><g mask="url(#171c143923)"><g transform="matrix(1, 0, 0, 1, 44, 6)"><g clip-path="url(#67e7a55490)"><g clip-path="url(#6ed3b7025a)"><path stroke-linecap="butt" transform="matrix(0.75, 0, 0, 0.75, 0.991502, 1.50002)" fill="none" stroke-linejoin="miter" d="M 0.000913961 -0.00002625 L 964.011371 -0.00002625 " stroke="#3e2561" stroke-width="1" stroke-opacity="1" stroke-miterlimit="4"/></g></g></g></g><path stroke-linecap="round" transform="matrix(0.75, 0, 0, 0.75, 44.991502, 7.50002)" fill-opacity="1" fill="#000000" fill-rule="nonzero" stroke-linejoin="miter" d="M 96.40196 253.958318 L 289.204051 163.260397 " stroke="#261049" stroke-width="4.5" stroke-opacity="1" stroke-miterlimit="4"/><path stroke-linecap="round" transform="matrix(0.75, 0, 0, 0.75, 44.991502, 7.50002)" fill-opacity="1" fill="#000000" fill-rule="nonzero" stroke-linejoin="miter" d="M 289.204051 163.260397 L 482.006142 126.979146 " stroke="#261049" stroke-width="4.5" stroke-opacity="1" stroke-miterlimit="4"/><path stroke-linecap="round" transform="matrix(0.75, 0, 0, 0.75, 44.991502, 7.50002)" fill-opacity="1" fill="#000000" fill-rule="nonzero" stroke-linejoin="miter" d="M 482.006142 126.979146 L 674.808234 108.83852 " stroke="#261049" stroke-width="4.5" stroke-opacity="1" stroke-miterlimit="4"/><path stroke-linecap="round" transform="matrix(0.75, 0, 0, 0.75, 44.991502, 7.50002)" fill-opacity="1" fill="#000000" fill-rule="nonzero" stroke-linejoin="miter" d="M 674.808234 108.83852 L 867.610325 72.562477 " stroke="#261049" stroke-width="4.5" stroke-opacity="1" stroke-miterlimit="4"/><path fill="#261049" d="M 117.292969 204.34375 L 123.667969 197.96875 L 117.292969 191.59375 L 110.917969 197.96875 Z M 117.292969 204.34375 " fill-opacity="1" fill-rule="nonzero"/><path fill="#261049" d="M 261.894531 136.320312 L 268.269531 129.945312 L 261.894531 123.570312 L 255.519531 129.945312 Z M 261.894531 136.320312 " fill-opacity="1" fill-rule="nonzero"/><path fill="#261049" d="M 406.496094 109.109375 L 412.871094 102.734375 L 406.496094 96.359375 L 400.121094 102.734375 Z M 406.496094 109.109375 " fill-opacity="1" fill-rule="nonzero"/><path fill="#261049" d="M 551.097656 95.503906 L 557.472656 89.128906 L 551.097656 82.753906 L 544.722656 89.128906 Z M 551.097656 95.503906 " fill-opacity="1" fill-rule="nonzero"/><path fill="#261049" d="M 695.699219 68.296875 L 702.074219 61.921875 L 695.699219 55.546875 L 689.324219 61.921875 Z M 695.699219 68.296875 " fill-opacity="1" fill-rule="nonzero"/></svg>