<svg xmlns="http://www.w3.org/2000/svg" xmlns:xlink="http://www.w3.org/1999/xlink" width="1024" zoomAndPan="magnify" viewBox="0 0 768 576" height="768" preserveAspectRatio="xMidYMid meet" version="1.0"><defs><filter x="0%" y="0%" width="100%" height="100%" id="a4723222c1"><feColorMatrix values="0 0 0 0 1 0 0 0 0 1 0 0 0 0 1 0 0 0 1 0" color-interpolation-filters="sRGB"/></filter><g/><mask id="bde27132f9"><g filter="url(#a4723222c1)"><rect x="-76.8" width="921.6" fill="#000000" y="-57.6" height="691.2" fill-opacity="0.6"/></g></mask><clipPath id="6bc0227d1e"><path d="M 0.320312 0.0390625 L 746 0.0390625 L 746 1.71875 L 0.320312 1.71875 Z M 0.320312 0.0390625 " clip-rule="nonzero"/></clipPath><clipPath id="c68ad30fbc"><rect x="0" width="746" y="0" height="2"/></clipPath><mask id="b99fcb51c7"><g filter="url(#a4723222c1)"><rect x="-76.8" width="921.6" fill="#000000" y="-57.6" height="691.2" fill-opacity="0.25"/></g></mask><clipPath id="1f16b6a85d"><path d="M 0.320312 0.761719 L 746 0.761719 L 746 2 L 0.320312 2 Z M 0.320312 0.761719 " clip-rule="nonzero"/></clipPath><clipPath id="bf47bfebbc"><rect x="0" width="746" y="0" height="3"/></clipPath><mask id="f7386dbc8b"><g filter="url(#a4723222c1)"><rect x="-76.8" width="921.6" fill="#000000" y="-57.6" height="691.2" fill-opacity="0.25"/></g></mask><clipPath id="41c7d9d9c3"><path d="M 0.320312 1 L 746 1 L 746 2.441406 L 0.320312 2.441406 Z M 0.320312 1 " clip-rule="nonzero"/></clipPath><clipPath id="52b76a8139"><rect x="0" width="746" y="0" height="3"/></clipPath><mask id="49ac87aa93"><g filter="url(#a4723222c1)"><rect x="-76.8" width="921.6" fill="#000000" y="-57.6" height="691.2" fill-opacity="0.25"/></g></mask><clipPath id="089511fa9a"><path d="M 0.320312 0.480469 L 746 0.480469 L 746 2 L 0.320312 2 Z M 0.320312 0.480469 " clip-rule="nonzero"/></clipPath><clipPath id="1520a20ec3"><rect x="0" width="746" y="0" height="3"/></clipPath><mask id="555f2a4e26"><g filter="url(#a4723222c1)"><rect x="-76.8" width="921.6" fill="#000000" y="-57.6" height="691.2" fill-opacity="0.25"/></g></mask><clipPath id="1a5a35fd89"><path d="M 0.320312 0.199219 L 746 0.199219 L 746 1.878906 L 0.320312 1.878906 Z M 0.320312 0.199219 " clip-rule="nonzero"/></clipPath><clipPath id="23593a43bb"><rect x="0" width="746" y="0" height="2"/></clipPath><mask id="984c189f83"><g filter="url(#a4723222c1)"><rect x="-76.8" width="921.6" fill="#000000" y="-57.6" height="691.2" fill-opacity="0.25"/></g></mask><clipPath id="a68ebda221"><path d="M 0.320312 1 L 746 1 L 746 2 L 0.320312 2 Z M 0.320312 1 " clip-rule="nonzero"/></clipPath><clipPath id="5481af079a"><rect x="0" width="746" y="0" height="3"/></clipPath><mask id="ebb807b017"><g filter="url(#a4723222c1)"><rect x="-76.8" width="921.6" fill="#000000" y="-57.6" height="691.2" fill-opacity="0.25"/></g></mask><clipPath id="03208afa33"><path d="M 0.320312 1 L 746 1 L 746 2.601562 L 0.320312 2.601562 Z M 0.320312 1 " clip-rule="nonzero"/></clipPath><clipPath id="e463255245"><rect x="0" width="746" y="0" height="3"/></clipPath><mask id="e266af7293"><g filter="url(#a4723222c1)"><rect x="-76.8" width="921.6" fill="#000000" y="-57.6" height="691.2" fill-opacity="0.25"/></g></mask><clipPath id="caea9e5f92"><path d="M 0.320312 1 L 746 1 L 746 2 L 0.320312 2 Z M 0.320312 1 " clip-rule="nonzero"/></clipPath><clipPath id="f1abb11587"><rect x="0" width="746" y="0" height="3"/></clipPath></defs><g fill="#3e2561" fill-opacity="1"><g transform="translate(-0.749427, 557.699997)"><g><path d="M 6 0.171875 C 5.101562 0.171875 4.296875 -0.0390625 3.578125 -0.46875 C 2.867188 -0.90625 2.300781 -1.59375 1.875 -2.53125 C 1.457031 -3.46875 1.25 -4.65625 1.25 -6.09375 C 1.25 -7.539062 1.457031 -8.734375 1.875 -9.671875 C 2.300781 -10.609375 2.867188 -11.289062 3.578125 -11.71875 C 4.296875 -12.15625 5.101562 -12.375 6 -12.375 C 6.894531 -12.375 7.695312 -12.15625 8.40625 -11.71875 C 9.125 -11.289062 9.691406 -10.609375 10.109375 -9.671875 C 10.523438 -8.734375 10.734375 -7.539062 10.734375 -6.09375 C 10.734375 -4.65625 10.523438 -3.46875 10.109375 -2.53125 C 9.691406 -1.59375 9.125 -0.90625 8.40625 -0.46875 C 7.695312 -0.0390625 6.894531 0.171875 6 0.171875 Z M 6 -1.15625 C 7.0625 -1.15625 7.863281 -1.535156 8.40625 -2.296875 C 8.957031 -3.066406 9.234375 -4.332031 9.234375 -6.09375 C 9.234375 -7.863281 8.957031 -9.128906 8.40625 -9.890625 C 7.863281 -10.660156 7.0625 -11.046875 6 -11.046875 C 5.300781 -11.046875 4.710938 -10.882812 4.234375 -10.5625 C 3.753906 -10.238281 3.382812 -9.710938 3.125 -8.984375 C 2.875 -8.253906 2.75 -7.289062 2.75 -6.09375 C 2.75 -4.90625 2.875 -3.945312 3.125 -3.21875 C 3.382812 -2.488281 3.753906 -1.960938 4.234375 -1.640625 C 4.710938 -1.316406 5.300781 -1.15625 6 -1.15625 Z M 6 -1.15625 "/></g></g></g><g fill="#3e2561" fill-opacity="1"><g transform="translate(1.453698, 480.251784)"><g><path d="M 0.875 0 L 0.875 -1.1875 L 4.203125 -1.1875 L 4.203125 -10.515625 L 4 -10.5625 C 3.46875 -10.300781 3 -10.097656 2.59375 -9.953125 C 2.1875 -9.804688 1.664062 -9.671875 1.03125 -9.546875 L 1.03125 -10.859375 C 1.65625 -10.992188 2.273438 -11.175781 2.890625 -11.40625 C 3.503906 -11.632812 4.0625 -11.898438 4.5625 -12.203125 L 5.59375 -12.203125 L 5.59375 -1.1875 L 8.578125 -1.1875 L 8.578125 0 Z M 0.875 0 "/></g></g></g><g fill="#3e2561" fill-opacity="1"><g transform="translate(1.313073, 402.803547)"><g><path d="M 0.734375 -0.5625 C 0.734375 -1.226562 0.804688 -1.765625 0.953125 -2.171875 C 1.097656 -2.585938 1.347656 -2.972656 1.703125 -3.328125 C 2.066406 -3.691406 2.632812 -4.15625 3.40625 -4.71875 L 4.75 -5.703125 C 5.25 -6.066406 5.65625 -6.398438 5.96875 -6.703125 C 6.28125 -7.003906 6.523438 -7.332031 6.703125 -7.6875 C 6.890625 -8.050781 6.984375 -8.457031 6.984375 -8.90625 C 6.984375 -9.625 6.789062 -10.164062 6.40625 -10.53125 C 6.019531 -10.90625 5.414062 -11.09375 4.59375 -11.09375 C 3.945312 -11.09375 3.375 -10.941406 2.875 -10.640625 C 2.375 -10.335938 1.972656 -9.910156 1.671875 -9.359375 L 1.484375 -9.328125 L 0.625 -10.234375 C 1.039062 -10.898438 1.582031 -11.421875 2.25 -11.796875 C 2.914062 -12.179688 3.695312 -12.375 4.59375 -12.375 C 5.46875 -12.375 6.191406 -12.226562 6.765625 -11.9375 C 7.335938 -11.644531 7.757812 -11.238281 8.03125 -10.71875 C 8.300781 -10.195312 8.4375 -9.59375 8.4375 -8.90625 C 8.4375 -8.363281 8.320312 -7.851562 8.09375 -7.375 C 7.863281 -6.90625 7.539062 -6.460938 7.125 -6.046875 C 6.707031 -5.628906 6.1875 -5.1875 5.5625 -4.71875 L 4.203125 -3.734375 C 3.691406 -3.359375 3.300781 -3.039062 3.03125 -2.78125 C 2.757812 -2.519531 2.5625 -2.265625 2.4375 -2.015625 C 2.3125 -1.765625 2.25 -1.488281 2.25 -1.1875 L 8.4375 -1.1875 L 8.4375 0 L 0.734375 0 Z M 0.734375 -0.5625 "/></g></g></g><g fill="#3e2561" fill-opacity="1"><g transform="translate(1.043542, 325.355339)"><g><path d="M 4.828125 0.171875 C 3.648438 0.171875 2.710938 -0.09375 2.015625 -0.625 C 1.316406 -1.15625 0.863281 -1.894531 0.65625 -2.84375 L 1.734375 -3.328125 L 1.921875 -3.296875 C 2.128906 -2.566406 2.453125 -2.019531 2.890625 -1.65625 C 3.335938 -1.300781 3.984375 -1.125 4.828125 -1.125 C 5.691406 -1.125 6.347656 -1.316406 6.796875 -1.703125 C 7.253906 -2.097656 7.484375 -2.679688 7.484375 -3.453125 C 7.484375 -4.203125 7.25 -4.773438 6.78125 -5.171875 C 6.320312 -5.566406 5.601562 -5.765625 4.625 -5.765625 L 3.296875 -5.765625 L 3.296875 -6.953125 L 4.484375 -6.953125 C 5.253906 -6.953125 5.863281 -7.140625 6.3125 -7.515625 C 6.769531 -7.898438 7 -8.441406 7 -9.140625 C 7 -9.796875 6.800781 -10.289062 6.40625 -10.625 C 6.007812 -10.957031 5.457031 -11.125 4.75 -11.125 C 3.519531 -11.125 2.644531 -10.632812 2.125 -9.65625 L 1.9375 -9.625 L 1.140625 -10.5 C 1.460938 -11.0625 1.929688 -11.515625 2.546875 -11.859375 C 3.171875 -12.203125 3.90625 -12.375 4.75 -12.375 C 5.53125 -12.375 6.195312 -12.253906 6.75 -12.015625 C 7.300781 -11.773438 7.71875 -11.425781 8 -10.96875 C 8.28125 -10.507812 8.421875 -9.960938 8.421875 -9.328125 C 8.421875 -8.734375 8.242188 -8.207031 7.890625 -7.75 C 7.546875 -7.289062 7.085938 -6.929688 6.515625 -6.671875 L 6.515625 -6.5 C 7.328125 -6.300781 7.9375 -5.9375 8.34375 -5.40625 C 8.75 -4.875 8.953125 -4.222656 8.953125 -3.453125 C 8.953125 -2.296875 8.601562 -1.398438 7.90625 -0.765625 C 7.21875 -0.140625 6.191406 0.171875 4.828125 0.171875 Z M 4.828125 0.171875 "/></g></g></g><g fill="#3e2561" fill-opacity="1"><g transform="translate(0.0826044, 247.907148)"><g><path d="M 7.640625 0 L 6.28125 0 L 6.28125 -2.90625 L 0.5625 -2.90625 L 0.5625 -4.0625 L 5.9375 -12.203125 L 7.640625 -12.203125 L 7.640625 -4.0625 L 9.75 -4.0625 L 9.75 -2.90625 L 7.640625 -2.90625 Z M 2.25 -4.234375 L 2.328125 -4.0625 L 6.28125 -4.0625 L 6.28125 -10.21875 L 6.078125 -10.25 Z M 2.25 -4.234375 "/></g></g></g><g fill="#3e2561" fill-opacity="1"><g transform="translate(0.199792, 170.458928)"><g><path d="M 5.03125 0.171875 C 3.882812 0.171875 2.96875 -0.078125 2.28125 -0.578125 C 1.601562 -1.085938 1.160156 -1.804688 0.953125 -2.734375 L 2.015625 -3.21875 L 2.21875 -3.1875 C 2.351562 -2.71875 2.53125 -2.332031 2.75 -2.03125 C 2.976562 -1.726562 3.273438 -1.5 3.640625 -1.34375 C 4.015625 -1.195312 4.476562 -1.125 5.03125 -1.125 C 5.851562 -1.125 6.492188 -1.367188 6.953125 -1.859375 C 7.410156 -2.347656 7.640625 -3.0625 7.640625 -4 C 7.640625 -4.957031 7.410156 -5.6875 6.953125 -6.1875 C 6.503906 -6.6875 5.882812 -6.9375 5.09375 -6.9375 C 4.488281 -6.9375 3.992188 -6.8125 3.609375 -6.5625 C 3.234375 -6.320312 2.898438 -5.945312 2.609375 -5.4375 L 1.453125 -5.546875 L 1.6875 -12.203125 L 8.53125 -12.203125 L 8.53125 -10.984375 L 2.953125 -10.984375 L 2.796875 -6.9375 L 2.984375 -6.90625 C 3.265625 -7.320312 3.613281 -7.632812 4.03125 -7.84375 C 4.445312 -8.050781 4.945312 -8.15625 5.53125 -8.15625 C 6.257812 -8.15625 6.894531 -7.992188 7.4375 -7.671875 C 7.976562 -7.347656 8.394531 -6.875 8.6875 -6.25 C 8.988281 -5.625 9.140625 -4.875 9.140625 -4 C 9.140625 -3.132812 8.96875 -2.382812 8.625 -1.75 C 8.28125 -1.125 7.796875 -0.644531 7.171875 -0.3125 C 6.554688 0.0078125 5.84375 0.171875 5.03125 0.171875 Z M 5.03125 0.171875 "/></g></g></g><g fill="#3e2561" fill-opacity="1"><g transform="translate(-0.245521, 93.010725)"><g><path d="M 5.828125 0.171875 C 4.960938 0.171875 4.1875 -0.03125 3.5 -0.4375 C 2.820312 -0.851562 2.273438 -1.53125 1.859375 -2.46875 C 1.453125 -3.40625 1.25 -4.613281 1.25 -6.09375 C 1.25 -7.539062 1.453125 -8.734375 1.859375 -9.671875 C 2.273438 -10.609375 2.832031 -11.289062 3.53125 -11.71875 C 4.238281 -12.15625 5.046875 -12.375 5.953125 -12.375 C 7.523438 -12.375 8.679688 -11.898438 9.421875 -10.953125 L 8.71875 -10 L 8.5 -10 C 7.90625 -10.726562 7.054688 -11.09375 5.953125 -11.09375 C 4.898438 -11.09375 4.09375 -10.691406 3.53125 -9.890625 C 2.976562 -9.097656 2.703125 -7.820312 2.703125 -6.0625 L 2.875 -6.015625 C 3.207031 -6.703125 3.640625 -7.21875 4.171875 -7.5625 C 4.710938 -7.914062 5.375 -8.09375 6.15625 -8.09375 C 6.925781 -8.09375 7.59375 -7.925781 8.15625 -7.59375 C 8.71875 -7.269531 9.148438 -6.796875 9.453125 -6.171875 C 9.753906 -5.546875 9.90625 -4.8125 9.90625 -3.96875 C 9.90625 -3.125 9.738281 -2.390625 9.40625 -1.765625 C 9.070312 -1.140625 8.597656 -0.660156 7.984375 -0.328125 C 7.367188 0.00390625 6.648438 0.171875 5.828125 0.171875 Z M 5.828125 -1.125 C 6.628906 -1.125 7.257812 -1.367188 7.71875 -1.859375 C 8.175781 -2.347656 8.40625 -3.050781 8.40625 -3.96875 C 8.40625 -4.894531 8.175781 -5.601562 7.71875 -6.09375 C 7.257812 -6.582031 6.628906 -6.828125 5.828125 -6.828125 C 5.273438 -6.828125 4.796875 -6.710938 4.390625 -6.484375 C 3.984375 -6.265625 3.671875 -5.941406 3.453125 -5.515625 C 3.234375 -5.085938 3.125 -4.570312 3.125 -3.96875 C 3.125 -3.375 3.234375 -2.863281 3.453125 -2.4375 C 3.671875 -2.007812 3.984375 -1.679688 4.390625 -1.453125 C 4.796875 -1.234375 5.273438 -1.125 5.828125 -1.125 Z M 5.828125 -1.125 "/></g></g></g><g fill="#3e2561" fill-opacity="1"><g transform="translate(1.781823, 15.562519)"><g><path d="M 3.3125 0 L 1.921875 0 L 6.453125 -10.8125 L 6.40625 -10.984375 L 0.453125 -10.984375 L 0.453125 -12.203125 L 7.890625 -12.203125 L 7.890625 -10.890625 Z M 3.3125 0 "/></g></g></g><g fill="#3e2561" fill-opacity="1"><g transform="translate(64.084538, 574.499996)"><g><path d="M 5.328125 0 L 3.453125 0 L 0.65625 -12.203125 L 2.078125 -12.203125 L 4.375 -2.109375 L 4.578125 -2.109375 L 7.3125 -12.203125 L 8.640625 -12.203125 L 11.390625 -2.109375 L 11.59375 -2.109375 L 13.890625 -12.203125 L 15.28125 -12.203125 L 12.484375 0 L 10.59375 0 L 8.046875 -9.234375 L 7.875 -9.234375 Z M 5.328125 0 "/></g></g></g><g fill="#3e2561" fill-opacity="1"><g transform="translate(79.746224, 574.499996)"><g><path d="M 8.765625 -4.296875 L 2.453125 -4.296875 C 2.484375 -3.171875 2.75 -2.347656 3.25 -1.828125 C 3.75 -1.304688 4.429688 -1.046875 5.296875 -1.046875 C 5.953125 -1.046875 6.476562 -1.160156 6.875 -1.390625 C 7.28125 -1.628906 7.597656 -2 7.828125 -2.5 L 8 -2.5 L 8.890625 -1.96875 C 8.617188 -1.300781 8.191406 -0.773438 7.609375 -0.390625 C 7.023438 -0.015625 6.253906 0.171875 5.296875 0.171875 C 4.410156 0.171875 3.644531 0 3 -0.34375 C 2.363281 -0.695312 1.875 -1.226562 1.53125 -1.9375 C 1.1875 -2.65625 1.015625 -3.539062 1.015625 -4.59375 C 1.015625 -5.644531 1.195312 -6.53125 1.5625 -7.25 C 1.925781 -7.96875 2.421875 -8.5 3.046875 -8.84375 C 3.679688 -9.195312 4.40625 -9.375 5.21875 -9.375 C 6.394531 -9.375 7.3125 -9.039062 7.96875 -8.375 C 8.632812 -7.71875 8.972656 -6.734375 8.984375 -5.421875 C 8.984375 -4.910156 8.972656 -4.566406 8.953125 -4.390625 Z M 7.640625 -5.421875 C 7.617188 -6.398438 7.398438 -7.113281 6.984375 -7.5625 C 6.578125 -8.007812 5.988281 -8.234375 5.21875 -8.234375 C 4.40625 -8.234375 3.769531 -8.007812 3.3125 -7.5625 C 2.851562 -7.113281 2.578125 -6.398438 2.484375 -5.421875 Z M 7.640625 -5.421875 "/></g></g></g><g fill="#3e2561" fill-opacity="1"><g transform="translate(89.564018, 574.499996)"><g><path d="M 8.765625 -4.296875 L 2.453125 -4.296875 C 2.484375 -3.171875 2.75 -2.347656 3.25 -1.828125 C 3.75 -1.304688 4.429688 -1.046875 5.296875 -1.046875 C 5.953125 -1.046875 6.476562 -1.160156 6.875 -1.390625 C 7.28125 -1.628906 7.597656 -2 7.828125 -2.5 L 8 -2.5 L 8.890625 -1.96875 C 8.617188 -1.300781 8.191406 -0.773438 7.609375 -0.390625 C 7.023438 -0.015625 6.253906 0.171875 5.296875 0.171875 C 4.410156 0.171875 3.644531 0 3 -0.34375 C 2.363281 -0.695312 1.875 -1.226562 1.53125 -1.9375 C 1.1875 -2.65625 1.015625 -3.539062 1.015625 -4.59375 C 1.015625 -5.644531 1.195312 -6.53125 1.5625 -7.25 C 1.925781 -7.96875 2.421875 -8.5 3.046875 -8.84375 C 3.679688 -9.195312 4.40625 -9.375 5.21875 -9.375 C 6.394531 -9.375 7.3125 -9.039062 7.96875 -8.375 C 8.632812 -7.71875 8.972656 -6.734375 8.984375 -5.421875 C 8.984375 -4.910156 8.972656 -4.566406 8.953125 -4.390625 Z M 7.640625 -5.421875 C 7.617188 -6.398438 7.398438 -7.113281 6.984375 -7.5625 C 6.578125 -8.007812 5.988281 -8.234375 5.21875 -8.234375 C 4.40625 -8.234375 3.769531 -8.007812 3.3125 -7.5625 C 2.851562 -7.113281 2.578125 -6.398438 2.484375 -5.421875 Z M 7.640625 -5.421875 "/></g></g></g><g fill="#3e2561" fill-opacity="1"><g transform="translate(99.381813, 574.499996)"><g><path d="M 1.609375 0 L 1.609375 -12.90625 L 2.96875 -12.90625 L 2.96875 -5.359375 L 3.1875 -5.359375 L 6.609375 -9.203125 L 8.03125 -9.203125 L 8.03125 -9.015625 L 4.390625 -4.875 L 8.390625 -0.203125 L 8.390625 0 L 6.875 0 L 3.1875 -4.25 L 2.96875 -4.25 L 2.96875 0 Z M 1.609375 0 "/></g></g></g><g fill="#3e2561" fill-opacity="1"><g transform="translate(107.947337, 574.499996)"><g/></g></g><g fill="#3e2561" fill-opacity="1"><g transform="translate(112.138267, 574.499996)"><g><path d="M 0.875 0 L 0.875 -1.1875 L 4.203125 -1.1875 L 4.203125 -10.515625 L 4 -10.5625 C 3.46875 -10.300781 3 -10.097656 2.59375 -9.953125 C 2.1875 -9.804688 1.664062 -9.671875 1.03125 -9.546875 L 1.03125 -10.859375 C 1.65625 -10.992188 2.273438 -11.175781 2.890625 -11.40625 C 3.503906 -11.632812 4.0625 -11.898438 4.5625 -12.203125 L 5.59375 -12.203125 L 5.59375 -1.1875 L 8.578125 -1.1875 L 8.578125 0 Z M 0.875 0 "/></g></g></g><g fill="#3e2561" fill-opacity="1"><g transform="translate(121.238093, 574.499996)"><g><path d="M 5.03125 0.171875 C 3.882812 0.171875 2.96875 -0.078125 2.28125 -0.578125 C 1.601562 -1.085938 1.160156 -1.804688 0.953125 -2.734375 L 2.015625 -3.21875 L 2.21875 -3.1875 C 2.351562 -2.71875 2.53125 -2.332031 2.75 -2.03125 C 2.976562 -1.726562 3.273438 -1.5 3.640625 -1.34375 C 4.015625 -1.195312 4.476562 -1.125 5.03125 -1.125 C 5.851562 -1.125 6.492188 -1.367188 6.953125 -1.859375 C 7.410156 -2.347656 7.640625 -3.0625 7.640625 -4 C 7.640625 -4.957031 7.410156 -5.6875 6.953125 -6.1875 C 6.503906 -6.6875 5.882812 -6.9375 5.09375 -6.9375 C 4.488281 -6.9375 3.992188 -6.8125 3.609375 -6.5625 C 3.234375 -6.320312 2.898438 -5.945312 2.609375 -5.4375 L 1.453125 -5.546875 L 1.6875 -12.203125 L 8.53125 -12.203125 L 8.53125 -10.984375 L 2.953125 -10.984375 L 2.796875 -6.9375 L 2.984375 -6.90625 C 3.265625 -7.320312 3.613281 -7.632812 4.03125 -7.84375 C 4.445312 -8.050781 4.945312 -8.15625 5.53125 -8.15625 C 6.257812 -8.15625 6.894531 -7.992188 7.4375 -7.671875 C 7.976562 -7.347656 8.394531 -6.875 8.6875 -6.25 C 8.988281 -5.625 9.140625 -4.875 9.140625 -4 C 9.140625 -3.132812 8.96875 -2.382812 8.625 -1.75 C 8.28125 -1.125 7.796875 -0.644531 7.171875 -0.3125 C 6.554688 0.0078125 5.84375 0.171875 5.03125 0.171875 Z M 5.03125 0.171875 "/></g></g></g><g fill="#3e2561" fill-opacity="1"><g transform="translate(213.129981, 574.499996)"><g><path d="M 5.328125 0 L 3.453125 0 L 0.65625 -12.203125 L 2.078125 -12.203125 L 4.375 -2.109375 L 4.578125 -2.109375 L 7.3125 -12.203125 L 8.640625 -12.203125 L 11.390625 -2.109375 L 11.59375 -2.109375 L 13.890625 -12.203125 L 15.28125 -12.203125 L 12.484375 0 L 10.59375 0 L 8.046875 -9.234375 L 7.875 -9.234375 Z M 5.328125 0 "/></g></g></g><g fill="#3e2561" fill-opacity="1"><g transform="translate(228.791667, 574.499996)"><g><path d="M 8.765625 -4.296875 L 2.453125 -4.296875 C 2.484375 -3.171875 2.75 -2.347656 3.25 -1.828125 C 3.75 -1.304688 4.429688 -1.046875 5.296875 -1.046875 C 5.953125 -1.046875 6.476562 -1.160156 6.875 -1.390625 C 7.28125 -1.628906 7.597656 -2 7.828125 -2.5 L 8 -2.5 L 8.890625 -1.96875 C 8.617188 -1.300781 8.191406 -0.773438 7.609375 -0.390625 C 7.023438 -0.015625 6.253906 0.171875 5.296875 0.171875 C 4.410156 0.171875 3.644531 0 3 -0.34375 C 2.363281 -0.695312 1.875 -1.226562 1.53125 -1.9375 C 1.1875 -2.65625 1.015625 -3.539062 1.015625 -4.59375 C 1.015625 -5.644531 1.195312 -6.53125 1.5625 -7.25 C 1.925781 -7.96875 2.421875 -8.5 3.046875 -8.84375 C 3.679688 -9.195312 4.40625 -9.375 5.21875 -9.375 C 6.394531 -9.375 7.3125 -9.039062 7.96875 -8.375 C 8.632812 -7.71875 8.972656 -6.734375 8.984375 -5.421875 C 8.984375 -4.910156 8.972656 -4.566406 8.953125 -4.390625 Z M 7.640625 -5.421875 C 7.617188 -6.398438 7.398438 -7.113281 6.984375 -7.5625 C 6.578125 -8.007812 5.988281 -8.234375 5.21875 -8.234375 C 4.40625 -8.234375 3.769531 -8.007812 3.3125 -7.5625 C 2.851562 -7.113281 2.578125 -6.398438 2.484375 -5.421875 Z M 7.640625 -5.421875 "/></g></g></g><g fill="#3e2561" fill-opacity="1"><g transform="translate(238.609461, 574.499996)"><g><path d="M 8.765625 -4.296875 L 2.453125 -4.296875 C 2.484375 -3.171875 2.75 -2.347656 3.25 -1.828125 C 3.75 -1.304688 4.429688 -1.046875 5.296875 -1.046875 C 5.953125 -1.046875 6.476562 -1.160156 6.875 -1.390625 C 7.28125 -1.628906 7.597656 -2 7.828125 -2.5 L 8 -2.5 L 8.890625 -1.96875 C 8.617188 -1.300781 8.191406 -0.773438 7.609375 -0.390625 C 7.023438 -0.015625 6.253906 0.171875 5.296875 0.171875 C 4.410156 0.171875 3.644531 0 3 -0.34375 C 2.363281 -0.695312 1.875 -1.226562 1.53125 -1.9375 C 1.1875 -2.65625 1.015625 -3.539062 1.015625 -4.59375 C 1.015625 -5.644531 1.195312 -6.53125 1.5625 -7.25 C 1.925781 -7.96875 2.421875 -8.5 3.046875 -8.84375 C 3.679688 -9.195312 4.40625 -9.375 5.21875 -9.375 C 6.394531 -9.375 7.3125 -9.039062 7.96875 -8.375 C 8.632812 -7.71875 8.972656 -6.734375 8.984375 -5.421875 C 8.984375 -4.910156 8.972656 -4.566406 8.953125 -4.390625 Z M 7.640625 -5.421875 C 7.617188 -6.398438 7.398438 -7.113281 6.984375 -7.5625 C 6.578125 -8.007812 5.988281 -8.234375 5.21875 -8.234375 C 4.40625 -8.234375 3.769531 -8.007812 3.3125 -7.5625 C 2.851562 -7.113281 2.578125 -6.398438 2.484375 -5.421875 Z M 7.640625 -5.421875 "/></g></g></g><g fill="#3e2561" fill-opacity="1"><g transform="translate(248.427256, 574.499996)"><g><path d="M 1.609375 0 L 1.609375 -12.90625 L 2.96875 -12.90625 L 2.96875 -5.359375 L 3.1875 -5.359375 L 6.609375 -9.203125 L 8.03125 -9.203125 L 8.03125 -9.015625 L 4.390625 -4.875 L 8.390625 -0.203125 L 8.390625 0 L 6.875 0 L 3.1875 -4.25 L 2.96875 -4.25 L 2.96875 0 Z M 1.609375 0 "/></g></g></g><g fill="#3e2561" fill-opacity="1"><g transform="translate(256.99278, 574.499996)"><g/></g></g><g fill="#3e2561" fill-opacity="1"><g transform="translate(261.18371, 574.499996)"><g><path d="M 0.875 0 L 0.875 -1.1875 L 4.203125 -1.1875 L 4.203125 -10.515625 L 4 -10.5625 C 3.46875 -10.300781 3 -10.097656 2.59375 -9.953125 C 2.1875 -9.804688 1.664062 -9.671875 1.03125 -9.546875 L 1.03125 -10.859375 C 1.65625 -10.992188 2.273438 -11.175781 2.890625 -11.40625 C 3.503906 -11.632812 4.0625 -11.898438 4.5625 -12.203125 L 5.59375 -12.203125 L 5.59375 -1.1875 L 8.578125 -1.1875 L 8.578125 0 Z M 0.875 0 "/></g></g></g><g fill="#3e2561" fill-opacity="1"><g transform="translate(269.966249, 574.499996)"><g><path d="M 5.828125 0.171875 C 4.960938 0.171875 4.1875 -0.03125 3.5 -0.4375 C 2.820312 -0.851562 2.273438 -1.53125 1.859375 -2.46875 C 1.453125 -3.40625 1.25 -4.613281 1.25 -6.09375 C 1.25 -7.539062 1.453125 -8.734375 1.859375 -9.671875 C 2.273438 -10.609375 2.832031 -11.289062 3.53125 -11.71875 C 4.238281 -12.15625 5.046875 -12.375 5.953125 -12.375 C 7.523438 -12.375 8.679688 -11.898438 9.421875 -10.953125 L 8.71875 -10 L 8.5 -10 C 7.90625 -10.726562 7.054688 -11.09375 5.953125 -11.09375 C 4.898438 -11.09375 4.09375 -10.691406 3.53125 -9.890625 C 2.976562 -9.097656 2.703125 -7.820312 2.703125 -6.0625 L 2.875 -6.015625 C 3.207031 -6.703125 3.640625 -7.21875 4.171875 -7.5625 C 4.710938 -7.914062 5.375 -8.09375 6.15625 -8.09375 C 6.925781 -8.09375 7.59375 -7.925781 8.15625 -7.59375 C 8.71875 -7.269531 9.148438 -6.796875 9.453125 -6.171875 C 9.753906 -5.546875 9.90625 -4.8125 9.90625 -3.96875 C 9.90625 -3.125 9.738281 -2.390625 9.40625 -1.765625 C 9.070312 -1.140625 8.597656 -0.660156 7.984375 -0.328125 C 7.367188 0.00390625 6.648438 0.171875 5.828125 0.171875 Z M 5.828125 -1.125 C 6.628906 -1.125 7.257812 -1.367188 7.71875 -1.859375 C 8.175781 -2.347656 8.40625 -3.050781 8.40625 -3.96875 C 8.40625 -4.894531 8.175781 -5.601562 7.71875 -6.09375 C 7.257812 -6.582031 6.628906 -6.828125 5.828125 -6.828125 C 5.273438 -6.828125 4.796875 -6.710938 4.390625 -6.484375 C 3.984375 -6.265625 3.671875 -5.941406 3.453125 -5.515625 C 3.234375 -5.085938 3.125 -4.570312 3.125 -3.96875 C 3.125 -3.375 3.234375 -2.863281 3.453125 -2.4375 C 3.671875 -2.007812 3.984375 -1.679688 4.390625 -1.453125 C 4.796875 -1.234375 5.273438 -1.125 5.828125 -1.125 Z M 5.828125 -1.125 "/></g></g></g><g fill="#3e2561" fill-opacity="1"><g transform="translate(363.136362, 574.499996)"><g><path d="M 5.328125 0 L 3.453125 0 L 0.65625 -12.203125 L 2.078125 -12.203125 L 4.375 -2.109375 L 4.578125 -2.109375 L 7.3125 -12.203125 L 8.640625 -12.203125 L 11.390625 -2.109375 L 11.59375 -2.109375 L 13.890625 -12.203125 L 15.28125 -12.203125 L 12.484375 0 L 10.59375 0 L 8.046875 -9.234375 L 7.875 -9.234375 Z M 5.328125 0 "/></g></g></g><g fill="#3e2561" fill-opacity="1"><g transform="translate(378.798047, 574.499996)"><g><path d="M 8.765625 -4.296875 L 2.453125 -4.296875 C 2.484375 -3.171875 2.75 -2.347656 3.25 -1.828125 C 3.75 -1.304688 4.429688 -1.046875 5.296875 -1.046875 C 5.953125 -1.046875 6.476562 -1.160156 6.875 -1.390625 C 7.28125 -1.628906 7.597656 -2 7.828125 -2.5 L 8 -2.5 L 8.890625 -1.96875 C 8.617188 -1.300781 8.191406 -0.773438 7.609375 -0.390625 C 7.023438 -0.015625 6.253906 0.171875 5.296875 0.171875 C 4.410156 0.171875 3.644531 0 3 -0.34375 C 2.363281 -0.695312 1.875 -1.226562 1.53125 -1.9375 C 1.1875 -2.65625 1.015625 -3.539062 1.015625 -4.59375 C 1.015625 -5.644531 1.195312 -6.53125 1.5625 -7.25 C 1.925781 -7.96875 2.421875 -8.5 3.046875 -8.84375 C 3.679688 -9.195312 4.40625 -9.375 5.21875 -9.375 C 6.394531 -9.375 7.3125 -9.039062 7.96875 -8.375 C 8.632812 -7.71875 8.972656 -6.734375 8.984375 -5.421875 C 8.984375 -4.910156 8.972656 -4.566406 8.953125 -4.390625 Z M 7.640625 -5.421875 C 7.617188 -6.398438 7.398438 -7.113281 6.984375 -7.5625 C 6.578125 -8.007812 5.988281 -8.234375 5.21875 -8.234375 C 4.40625 -8.234375 3.769531 -8.007812 3.3125 -7.5625 C 2.851562 -7.113281 2.578125 -6.398438 2.484375 -5.421875 Z M 7.640625 -5.421875 "/></g></g></g><g fill="#3e2561" fill-opacity="1"><g transform="translate(388.615842, 574.499996)"><g><path d="M 8.765625 -4.296875 L 2.453125 -4.296875 C 2.484375 -3.171875 2.75 -2.347656 3.25 -1.828125 C 3.75 -1.304688 4.429688 -1.046875 5.296875 -1.046875 C 5.953125 -1.046875 6.476562 -1.160156 6.875 -1.390625 C 7.28125 -1.628906 7.597656 -2 7.828125 -2.5 L 8 -2.5 L 8.890625 -1.96875 C 8.617188 -1.300781 8.191406 -0.773438 7.609375 -0.390625 C 7.023438 -0.015625 6.253906 0.171875 5.296875 0.171875 C 4.410156 0.171875 3.644531 0 3 -0.34375 C 2.363281 -0.695312 1.875 -1.226562 1.53125 -1.9375 C 1.1875 -2.65625 1.015625 -3.539062 1.015625 -4.59375 C 1.015625 -5.644531 1.195312 -6.53125 1.5625 -7.25 C 1.925781 -7.96875 2.421875 -8.5 3.046875 -8.84375 C 3.679688 -9.195312 4.40625 -9.375 5.21875 -9.375 C 6.394531 -9.375 7.3125 -9.039062 7.96875 -8.375 C 8.632812 -7.71875 8.972656 -6.734375 8.984375 -5.421875 C 8.984375 -4.910156 8.972656 -4.566406 8.953125 -4.390625 Z M 7.640625 -5.421875 C 7.617188 -6.398438 7.398438 -7.113281 6.984375 -7.5625 C 6.578125 -8.007812 5.988281 -8.234375 5.21875 -8.234375 C 4.40625 -8.234375 3.769531 -8.007812 3.3125 -7.5625 C 2.851562 -7.113281 2.578125 -6.398438 2.484375 -5.421875 Z M 7.640625 -5.421875 "/></g></g></g><g fill="#3e2561" fill-opacity="1"><g transform="translate(398.433636, 574.499996)"><g><path d="M 1.609375 0 L 1.609375 -12.90625 L 2.96875 -12.90625 L 2.96875 -5.359375 L 3.1875 -5.359375 L 6.609375 -9.203125 L 8.03125 -9.203125 L 8.03125 -9.015625 L 4.390625 -4.875 L 8.390625 -0.203125 L 8.390625 0 L 6.875 0 L 3.1875 -4.25 L 2.96875 -4.25 L 2.96875 0 Z M 1.609375 0 "/></g></g></g><g fill="#3e2561" fill-opacity="1"><g transform="translate(411.19009, 574.499996)"><g><path d="M 0.875 0 L 0.875 -1.1875 L 4.203125 -1.1875 L 4.203125 -10.515625 L 4 -10.5625 C 3.46875 -10.300781 3 -10.097656 2.59375 -9.953125 C 2.1875 -9.804688 1.664062 -9.671875 1.03125 -9.546875 L 1.03125 -10.859375 C 1.65625 -10.992188 2.273438 -11.175781 2.890625 -11.40625 C 3.503906 -11.632812 4.0625 -11.898438 4.5625 -12.203125 L 5.59375 -12.203125 L 5.59375 -1.1875 L 8.578125 -1.1875 L 8.578125 0 Z M 0.875 0 "/></g></g></g><g fill="#3e2561" fill-opacity="1"><g transform="translate(419.663696, 574.499996)"><g><path d="M 3.3125 0 L 1.921875 0 L 6.453125 -10.8125 L 6.40625 -10.984375 L 0.453125 -10.984375 L 0.453125 -12.203125 L 7.890625 -12.203125 L 7.890625 -10.890625 Z M 3.3125 0 "/></g></g></g><g fill="#3e2561" fill-opacity="1"><g transform="translate(510.834129, 574.499996)"><g><path d="M 5.328125 0 L 3.453125 0 L 0.65625 -12.203125 L 2.078125 -12.203125 L 4.375 -2.109375 L 4.578125 -2.109375 L 7.3125 -12.203125 L 8.640625 -12.203125 L 11.390625 -2.109375 L 11.59375 -2.109375 L 13.890625 -12.203125 L 15.28125 -12.203125 L 12.484375 0 L 10.59375 0 L 8.046875 -9.234375 L 7.875 -9.234375 Z M 5.328125 0 "/></g></g></g><g fill="#3e2561" fill-opacity="1"><g transform="translate(526.495815, 574.499996)"><g><path d="M 8.765625 -4.296875 L 2.453125 -4.296875 C 2.484375 -3.171875 2.75 -2.347656 3.25 -1.828125 C 3.75 -1.304688 4.429688 -1.046875 5.296875 -1.046875 C 5.953125 -1.046875 6.476562 -1.160156 6.875 -1.390625 C 7.28125 -1.628906 7.597656 -2 7.828125 -2.5 L 8 -2.5 L 8.890625 -1.96875 C 8.617188 -1.300781 8.191406 -0.773438 7.609375 -0.390625 C 7.023438 -0.015625 6.253906 0.171875 5.296875 0.171875 C 4.410156 0.171875 3.644531 0 3 -0.34375 C 2.363281 -0.695312 1.875 -1.226562 1.53125 -1.9375 C 1.1875 -2.65625 1.015625 -3.539062 1.015625 -4.59375 C 1.015625 -5.644531 1.195312 -6.53125 1.5625 -7.25 C 1.925781 -7.96875 2.421875 -8.5 3.046875 -8.84375 C 3.679688 -9.195312 4.40625 -9.375 5.21875 -9.375 C 6.394531 -9.375 7.3125 -9.039062 7.96875 -8.375 C 8.632812 -7.71875 8.972656 -6.734375 8.984375 -5.421875 C 8.984375 -4.910156 8.972656 -4.566406 8.953125 -4.390625 Z M 7.640625 -5.421875 C 7.617188 -6.398438 7.398438 -7.113281 6.984375 -7.5625 C 6.578125 -8.007812 5.988281 -8.234375 5.21875 -8.234375 C 4.40625 -8.234375 3.769531 -8.007812 3.3125 -7.5625 C 2.851562 -7.113281 2.578125 -6.398438 2.484375 -5.421875 Z M 7.640625 -5.421875 "/></g></g></g><g fill="#3e2561" fill-opacity="1"><g transform="translate(536.313609, 574.499996)"><g><path d="M 8.765625 -4.296875 L 2.453125 -4.296875 C 2.484375 -3.171875 2.75 -2.347656 3.25 -1.828125 C 3.75 -1.304688 4.429688 -1.046875 5.296875 -1.046875 C 5.953125 -1.046875 6.476562 -1.160156 6.875 -1.390625 C 7.28125 -1.628906 7.597656 -2 7.828125 -2.5 L 8 -2.5 L 8.890625 -1.96875 C 8.617188 -1.300781 8.191406 -0.773438 7.609375 -0.390625 C 7.023438 -0.015625 6.253906 0.171875 5.296875 0.171875 C 4.410156 0.171875 3.644531 0 3 -0.34375 C 2.363281 -0.695312 1.875 -1.226562 1.53125 -1.9375 C 1.1875 -2.65625 1.015625 -3.539062 1.015625 -4.59375 C 1.015625 -5.644531 1.195312 -6.53125 1.5625 -7.25 C 1.925781 -7.96875 2.421875 -8.5 3.046875 -8.84375 C 3.679688 -9.195312 4.40625 -9.375 5.21875 -9.375 C 6.394531 -9.375 7.3125 -9.039062 7.96875 -8.375 C 8.632812 -7.71875 8.972656 -6.734375 8.984375 -5.421875 C 8.984375 -4.910156 8.972656 -4.566406 8.953125 -4.390625 Z M 7.640625 -5.421875 C 7.617188 -6.398438 7.398438 -7.113281 6.984375 -7.5625 C 6.578125 -8.007812 5.988281 -8.234375 5.21875 -8.234375 C 4.40625 -8.234375 3.769531 -8.007812 3.3125 -7.5625 C 2.851562 -7.113281 2.578125 -6.398438 2.484375 -5.421875 Z M 7.640625 -5.421875 "/></g></g></g><g fill="#3e2561" fill-opacity="1"><g transform="translate(546.131404, 574.499996)"><g><path d="M 1.609375 0 L 1.609375 -12.90625 L 2.96875 -12.90625 L 2.96875 -5.359375 L 3.1875 -5.359375 L 6.609375 -9.203125 L 8.03125 -9.203125 L 8.03125 -9.015625 L 4.390625 -4.875 L 8.390625 -0.203125 L 8.390625 0 L 6.875 0 L 3.1875 -4.25 L 2.96875 -4.25 L 2.96875 0 Z M 1.609375 0 "/></g></g></g><g fill="#3e2561" fill-opacity="1"><g transform="translate(554.696928, 574.499996)"><g/></g></g><g fill="#3e2561" fill-opacity="1"><g transform="translate(558.887858, 574.499996)"><g><path d="M 0.875 0 L 0.875 -1.1875 L 4.203125 -1.1875 L 4.203125 -10.515625 L 4 -10.5625 C 3.46875 -10.300781 3 -10.097656 2.59375 -9.953125 C 2.1875 -9.804688 1.664062 -9.671875 1.03125 -9.546875 L 1.03125 -10.859375 C 1.65625 -10.992188 2.273438 -11.175781 2.890625 -11.40625 C 3.503906 -11.632812 4.0625 -11.898438 4.5625 -12.203125 L 5.59375 -12.203125 L 5.59375 -1.1875 L 8.578125 -1.1875 L 8.578125 0 Z M 0.875 0 "/></g></g></g><g fill="#3e2561" fill-opacity="1"><g transform="translate(567.987684, 574.499996)"><g><path d="M 5.15625 0.171875 C 4.269531 0.171875 3.507812 0.03125 2.875 -0.25 C 2.238281 -0.539062 1.753906 -0.953125 1.421875 -1.484375 C 1.097656 -2.015625 0.9375 -2.640625 0.9375 -3.359375 C 0.9375 -4.140625 1.128906 -4.785156 1.515625 -5.296875 C 1.898438 -5.816406 2.46875 -6.222656 3.21875 -6.515625 L 3.21875 -6.6875 C 2.6875 -7.007812 2.273438 -7.378906 1.984375 -7.796875 C 1.703125 -8.222656 1.5625 -8.722656 1.5625 -9.296875 C 1.5625 -9.910156 1.707031 -10.453125 2 -10.921875 C 2.300781 -11.390625 2.722656 -11.75 3.265625 -12 C 3.804688 -12.25 4.4375 -12.375 5.15625 -12.375 C 5.875 -12.375 6.503906 -12.25 7.046875 -12 C 7.597656 -11.75 8.019531 -11.390625 8.3125 -10.921875 C 8.601562 -10.453125 8.75 -9.910156 8.75 -9.296875 C 8.75 -8.722656 8.601562 -8.222656 8.3125 -7.796875 C 8.03125 -7.378906 7.625 -7.007812 7.09375 -6.6875 L 7.09375 -6.515625 C 7.851562 -6.222656 8.421875 -5.816406 8.796875 -5.296875 C 9.179688 -4.785156 9.375 -4.140625 9.375 -3.359375 C 9.375 -2.628906 9.207031 -2 8.875 -1.46875 C 8.550781 -0.945312 8.070312 -0.539062 7.4375 -0.25 C 6.8125 0.03125 6.050781 0.171875 5.15625 0.171875 Z M 5.15625 -7.078125 C 5.59375 -7.078125 5.972656 -7.160156 6.296875 -7.328125 C 6.628906 -7.492188 6.890625 -7.726562 7.078125 -8.03125 C 7.265625 -8.34375 7.359375 -8.707031 7.359375 -9.125 C 7.359375 -9.539062 7.265625 -9.90625 7.078125 -10.21875 C 6.890625 -10.53125 6.628906 -10.769531 6.296875 -10.9375 C 5.960938 -11.101562 5.582031 -11.1875 5.15625 -11.1875 C 4.476562 -11.1875 3.941406 -11 3.546875 -10.625 C 3.160156 -10.257812 2.96875 -9.757812 2.96875 -9.125 C 2.96875 -8.488281 3.160156 -7.988281 3.546875 -7.625 C 3.941406 -7.257812 4.476562 -7.078125 5.15625 -7.078125 Z M 5.15625 -1.078125 C 6.039062 -1.078125 6.710938 -1.285156 7.171875 -1.703125 C 7.640625 -2.128906 7.875 -2.710938 7.875 -3.453125 C 7.875 -4.191406 7.640625 -4.769531 7.171875 -5.1875 C 6.710938 -5.613281 6.039062 -5.828125 5.15625 -5.828125 C 4.28125 -5.828125 3.609375 -5.613281 3.140625 -5.1875 C 2.671875 -4.769531 2.4375 -4.191406 2.4375 -3.453125 C 2.4375 -2.710938 2.671875 -2.128906 3.140625 -1.703125 C 3.609375 -1.285156 4.28125 -1.078125 5.15625 -1.078125 Z M 5.15625 -1.078125 "/></g></g></g><g fill="#3e2561" fill-opacity="1"><g transform="translate(660.418688, 574.499996)"><g><path d="M 5.328125 0 L 3.453125 0 L 0.65625 -12.203125 L 2.078125 -12.203125 L 4.375 -2.109375 L 4.578125 -2.109375 L 7.3125 -12.203125 L 8.640625 -12.203125 L 11.390625 -2.109375 L 11.59375 -2.109375 L 13.890625 -12.203125 L 15.28125 -12.203125 L 12.484375 0 L 10.59375 0 L 8.046875 -9.234375 L 7.875 -9.234375 Z M 5.328125 0 "/></g></g></g><g fill="#3e2561" fill-opacity="1"><g transform="translate(676.080373, 574.499996)"><g><path d="M 8.765625 -4.296875 L 2.453125 -4.296875 C 2.484375 -3.171875 2.75 -2.347656 3.25 -1.828125 C 3.75 -1.304688 4.429688 -1.046875 5.296875 -1.046875 C 5.953125 -1.046875 6.476562 -1.160156 6.875 -1.390625 C 7.28125 -1.628906 7.597656 -2 7.828125 -2.5 L 8 -2.5 L 8.890625 -1.96875 C 8.617188 -1.300781 8.191406 -0.773438 7.609375 -0.390625 C 7.023438 -0.015625 6.253906 0.171875 5.296875 0.171875 C 4.410156 0.171875 3.644531 0 3 -0.34375 C 2.363281 -0.695312 1.875 -1.226562 1.53125 -1.9375 C 1.1875 -2.65625 1.015625 -3.539062 1.015625 -4.59375 C 1.015625 -5.644531 1.195312 -6.53125 1.5625 -7.25 C 1.925781 -7.96875 2.421875 -8.5 3.046875 -8.84375 C 3.679688 -9.195312 4.40625 -9.375 5.21875 -9.375 C 6.394531 -9.375 7.3125 -9.039062 7.96875 -8.375 C 8.632812 -7.71875 8.972656 -6.734375 8.984375 -5.421875 C 8.984375 -4.910156 8.972656 -4.566406 8.953125 -4.390625 Z M 7.640625 -5.421875 C 7.617188 -6.398438 7.398438 -7.113281 6.984375 -7.5625 C 6.578125 -8.007812 5.988281 -8.234375 5.21875 -8.234375 C 4.40625 -8.234375 3.769531 -8.007812 3.3125 -7.5625 C 2.851562 -7.113281 2.578125 -6.398438 2.484375 -5.421875 Z M 7.640625 -5.421875 "/></g></g></g><g fill="#3e2561" fill-opacity="1"><g transform="translate(685.898167, 574.499996)"><g><path d="M 8.765625 -4.296875 L 2.453125 -4.296875 C 2.484375 -3.171875 2.75 -2.347656 3.25 -1.828125 C 3.75 -1.304688 4.429688 -1.046875 5.296875 -1.046875 C 5.953125 -1.046875 6.476562 -1.160156 6.875 -1.390625 C 7.28125 -1.628906 7.597656 -2 7.828125 -2.5 L 8 -2.5 L 8.890625 -1.96875 C 8.617188 -1.300781 8.191406 -0.773438 7.609375 -0.390625 C 7.023438 -0.015625 6.253906 0.171875 5.296875 0.171875 C 4.410156 0.171875 3.644531 0 3 -0.34375 C 2.363281 -0.695312 1.875 -1.226562 1.53125 -1.9375 C 1.1875 -2.65625 1.015625 -3.539062 1.015625 -4.59375 C 1.015625 -5.644531 1.195312 -6.53125 1.5625 -7.25 C 1.925781 -7.96875 2.421875 -8.5 3.046875 -8.84375 C 3.679688 -9.195312 4.40625 -9.375 5.21875 -9.375 C 6.394531 -9.375 7.3125 -9.039062 7.96875 -8.375 C 8.632812 -7.71875 8.972656 -6.734375 8.984375 -5.421875 C 8.984375 -4.910156 8.972656 -4.566406 8.953125 -4.390625 Z M 7.640625 -5.421875 C 7.617188 -6.398438 7.398438 -7.113281 6.984375 -7.5625 C 6.578125 -8.007812 5.988281 -8.234375 5.21875 -8.234375 C 4.40625 -8.234375 3.769531 -8.007812 3.3125 -7.5625 C 2.851562 -7.113281 2.578125 -6.398438 2.484375 -5.421875 Z M 7.640625 -5.421875 "/></g></g></g><g fill="#3e2561" fill-opacity="1"><g transform="translate(695.715962, 574.499996)"><g><path d="M 1.609375 0 L 1.609375 -12.90625 L 2.96875 -12.90625 L 2.96875 -5.359375 L 3.1875 -5.359375 L 6.609375 -9.203125 L 8.03125 -9.203125 L 8.03125 -9.015625 L 4.390625 -4.875 L 8.390625 -0.203125 L 8.390625 0 L 6.875 0 L 3.1875 -4.25 L 2.96875 -4.25 L 2.96875 0 Z M 1.609375 0 "/></g></g></g><g fill="#3e2561" fill-opacity="1"><g transform="translate(704.281487, 574.499996)"><g/></g></g><g fill="#3e2561" fill-opacity="1"><g transform="translate(708.472416, 574.499996)"><g><path d="M 0.875 0 L 0.875 -1.1875 L 4.203125 -1.1875 L 4.203125 -10.515625 L 4 -10.5625 C 3.46875 -10.300781 3 -10.097656 2.59375 -9.953125 C 2.1875 -9.804688 1.664062 -9.671875 1.03125 -9.546875 L 1.03125 -10.859375 C 1.65625 -10.992188 2.273438 -11.175781 2.890625 -11.40625 C 3.503906 -11.632812 4.0625 -11.898438 4.5625 -12.203125 L 5.59375 -12.203125 L 5.59375 -1.1875 L 8.578125 -1.1875 L 8.578125 0 Z M 0.875 0 "/></g></g></g><g fill="#3e2561" fill-opacity="1"><g transform="translate(717.154762, 574.499996)"><g><path d="M 5.15625 0.171875 C 4.101562 0.171875 3.242188 -0.0664062 2.578125 -0.546875 C 1.921875 -1.023438 1.503906 -1.6875 1.328125 -2.53125 L 2.390625 -3.015625 L 2.578125 -2.984375 C 2.773438 -2.359375 3.070312 -1.890625 3.46875 -1.578125 C 3.875 -1.273438 4.4375 -1.125 5.15625 -1.125 C 6.164062 -1.125 6.9375 -1.546875 7.46875 -2.390625 C 8.007812 -3.234375 8.28125 -4.539062 8.28125 -6.3125 L 8.109375 -6.359375 C 7.765625 -5.660156 7.332031 -5.140625 6.8125 -4.796875 C 6.289062 -4.460938 5.628906 -4.296875 4.828125 -4.296875 C 4.066406 -4.296875 3.40625 -4.457031 2.84375 -4.78125 C 2.28125 -5.113281 1.84375 -5.582031 1.53125 -6.1875 C 1.226562 -6.800781 1.078125 -7.507812 1.078125 -8.3125 C 1.078125 -9.113281 1.242188 -9.820312 1.578125 -10.4375 C 1.921875 -11.0625 2.398438 -11.539062 3.015625 -11.875 C 3.628906 -12.207031 4.34375 -12.375 5.15625 -12.375 C 6.582031 -12.375 7.703125 -11.890625 8.515625 -10.921875 C 9.328125 -9.960938 9.734375 -8.40625 9.734375 -6.25 C 9.734375 -4.789062 9.539062 -3.582031 9.15625 -2.625 C 8.769531 -1.664062 8.234375 -0.957031 7.546875 -0.5 C 6.867188 -0.0507812 6.070312 0.171875 5.15625 0.171875 Z M 5.15625 -5.546875 C 5.707031 -5.546875 6.1875 -5.648438 6.59375 -5.859375 C 7 -6.078125 7.3125 -6.394531 7.53125 -6.8125 C 7.75 -7.226562 7.859375 -7.726562 7.859375 -8.3125 C 7.859375 -8.894531 7.75 -9.394531 7.53125 -9.8125 C 7.3125 -10.226562 7 -10.546875 6.59375 -10.765625 C 6.1875 -10.984375 5.707031 -11.09375 5.15625 -11.09375 C 4.351562 -11.09375 3.722656 -10.851562 3.265625 -10.375 C 2.804688 -9.90625 2.578125 -9.21875 2.578125 -8.3125 C 2.578125 -7.414062 2.804688 -6.726562 3.265625 -6.25 C 3.722656 -5.78125 4.351562 -5.546875 5.15625 -5.546875 Z M 5.15625 -5.546875 "/></g></g></g><g mask="url(#bde27132f9)"><g transform="matrix(1, 0, 0, 1, 22, 551)"><g clip-path="url(#c68ad30fbc)"><g clip-path="url(#6bc0227d1e)"><path stroke-linecap="butt" transform="matrix(0.75, 0, 0, 0.75, 1.241501, -541.437492)" fill="none" stroke-linejoin="miter" d="M 0.000915185 722.848978 L 993.011373 722.848978 " stroke="#3e2561" stroke-width="1" stroke-opacity="1" stroke-miterlimit="4"/></g></g></g></g><g mask="url(#b99fcb51c7)"><g transform="matrix(1, 0, 0, 1, 22, 473)"><g clip-path="url(#bf47bfebbc)"><g clip-path="url(#1f16b6a85d)"><path stroke-linecap="butt" transform="matrix(0.75, 0, 0, 0.75, 1.241501, -463.437492)" fill="none" stroke-linejoin="miter" d="M 0.000915185 619.583349 L 993.011373 619.583349 " stroke="#3e2561" stroke-width="1" stroke-opacity="1" stroke-miterlimit="4"/></g></g></g></g><g mask="url(#f7386dbc8b)"><g transform="matrix(1, 0, 0, 1, 22, 395)"><g clip-path="url(#52b76a8139)"><g clip-path="url(#41c7d9d9c3)"><path stroke-linecap="butt" transform="matrix(0.75, 0, 0, 0.75, 1.241501, -385.43748)" fill="none" stroke-linejoin="miter" d="M 0.000915185 516.322912 L 993.011373 516.322912 " stroke="#3e2561" stroke-width="1" stroke-opacity="1" stroke-miterlimit="4"/></g></g></g></g><g mask="url(#49ac87aa93)"><g transform="matrix(1, 0, 0, 1, 22, 318)"><g clip-path="url(#1520a20ec3)"><g clip-path="url(#089511fa9a)"><path stroke-linecap="butt" transform="matrix(0.75, 0, 0, 0.75, 1.241501, -308.43748)" fill="none" stroke-linejoin="miter" d="M 0.000915185 413.057283 L 993.011373 413.057283 " stroke="#3e2561" stroke-width="1" stroke-opacity="1" stroke-miterlimit="4"/></g></g></g></g><g mask="url(#555f2a4e26)"><g transform="matrix(1, 0, 0, 1, 22, 241)"><g clip-path="url(#23593a43bb)"><g clip-path="url(#1a5a35fd89)"><path stroke-linecap="butt" transform="matrix(0.75, 0, 0, 0.75, 1.241501, -231.43748)" fill="none" stroke-linejoin="miter" d="M 0.000915185 309.791653 L 993.011373 309.791653 " stroke="#3e2561" stroke-width="1" stroke-opacity="1" stroke-miterlimit="4"/></g></g></g></g><g mask="url(#984c189f83)"><g transform="matrix(1, 0, 0, 1, 22, 163)"><g clip-path="url(#5481af079a)"><g clip-path="url(#a68ebda221)"><path stroke-linecap="butt" transform="matrix(0.75, 0, 0, 0.75, 1.241501, -153.43748)" fill="none" stroke-linejoin="miter" d="M 0.000915185 206.526024 L 993.011373 206.526024 " stroke="#3e2561" stroke-width="1" stroke-opacity="1" stroke-miterlimit="4"/></g></g></g></g><g mask="url(#ebb807b017)"><g transform="matrix(1, 0, 0, 1, 22, 85)"><g clip-path="url(#e463255245)"><g clip-path="url(#03208afa33)"><path stroke-linecap="butt" transform="matrix(0.75, 0, 0, 0.75, 1.241501, -75.43748)" fill="none" stroke-linejoin="miter" d="M 0.000915185 103.265603 L 993.011373 103.265603 " stroke="#3e2561" stroke-width="1" stroke-opacity="1" stroke-miterlimit="4"/></g></g></g></g><g mask="url(#e266af7293)"><g transform="matrix(1, 0, 0, 1, 22, 8)"><g clip-path="url(#f1abb11587)"><g clip-path="url(#caea9e5f92)"><path stroke-linecap="butt" transform="matrix(0.75, 0, 0, 0.75, 1.241501, 1.56252)" fill="none" stroke-linejoin="miter" d="M 0.000915185 -0.0000261354 L 993.011373 -0.0000261354 " stroke="#3e2561" stroke-width="1" stroke-opacity="1" stroke-miterlimit="4"/></g></g></g></g><path stroke-linecap="round" transform="matrix(0.75, 0, 0, 0.75, 23.241501, 9.56252)" fill-opacity="1" fill="#000000" fill-rule="nonzero" stroke-linejoin="miter" d="M 99.303003 413.057283 L 297.901969 206.526024 " stroke="#261049" stroke-width="4.5" stroke-opacity="1" stroke-miterlimit="4"/><path stroke-linecap="round" transform="matrix(0.75, 0, 0, 0.75, 23.241501, 9.56252)" fill-opacity="1" fill="#000000" fill-rule="nonzero" stroke-linejoin="miter" d="M 297.901969 206.526024 L 496.506144 -0.0000261354 " stroke="#261049" stroke-width="4.5" stroke-opacity="1" stroke-miterlimit="4"/><path stroke-linecap="round" transform="matrix(0.75, 0, 0, 0.75, 23.241501, 9.56252)" fill-opacity="1" fill="#000000" fill-rule="nonzero" stroke-linejoin="miter" d="M 496.506144 -0.0000261354 L 695.110319 103.265603 " stroke="#261049" stroke-width="4.5" stroke-opacity="1" stroke-miterlimit="4"/><path stroke-linecap="round" transform="matrix(0.75, 0, 0, 0.75, 23.241501, 9.56252)" fill-opacity="1" fill="#000000" fill-rule="nonzero" stroke-linejoin="miter" d="M 695.110319 103.265603 L 893.709286 -0.0000261354 " stroke="#261049" stroke-width="4.5" stroke-opacity="1" stroke-miterlimit="4"/><path fill="#261049" d="M 97.71875 325.730469 L 104.09375 319.355469 L 97.71875 312.980469 L 91.34375 319.355469 Z M 97.71875 325.730469 " fill-opacity="1" fill-rule="nonzero"/><path fill="#261049" d="M 246.667969 170.832031 L 253.042969 164.457031 L 246.667969 158.082031 L 240.292969 164.457031 Z M 246.667969 170.832031 " fill-opacity="1" fill-rule="nonzero"/><path fill="#261049" d="M 395.621094 15.9375 L 401.996094 9.5625 L 395.621094 3.1875 L 389.246094 9.5625 Z M 395.621094 15.9375 " fill-opacity="1" fill-rule="nonzero"/><path fill="#261049" d="M 544.574219 93.386719 L 550.949219 87.011719 L 544.574219 80.636719 L 538.199219 87.011719 Z M 544.574219 93.386719 " fill-opacity="1" fill-rule="nonzero"/><path fill="#261049" d="M 693.523438 15.9375 L 699.898438 9.5625 L 693.523438 3.1875 L 687.148438 9.5625 Z M 693.523438 15.9375 " fill-opacity="1" fill-rule="nonzero"/></svg>